<?xml version="1.0" encoding="UTF-8" standalone="no"?>
<!DOCTYPE svg PUBLIC "-//W3C//DTD SVG 1.1//EN" "http://www.w3.org/Graphics/SVG/1.1/DTD/svg11.dtd">
<!-- Created with Vectornator (http://vectornator.io/) -->
<svg height="100%" stroke-miterlimit="10" style="fill-rule:nonzero;clip-rule:evenodd;stroke-linecap:round;stroke-linejoin:round;" version="1.1" viewBox="0 0 500 500" width="100%" xml:space="preserve" xmlns="http://www.w3.org/2000/svg" xmlns:vectornator="http://vectornator.io" xmlns:xlink="http://www.w3.org/1999/xlink">
<defs/>
<g id="Untitled" vectornator:layerName="Untitled">
<g opacity="1" vectornator:layerName="Floor">
<g opacity="1" vectornator:layerName="path">
<clipPath id="ClipPath">
<path d="M0 0L500 0L500 500L0 500L0 0Z"/>
</clipPath>
<g clip-path="url(#ClipPath)">
<path d="M111.537 435.605C184.775 469.637 303.517 469.638 376.754 435.606C449.992 401.572 449.992 346.395 376.754 312.363C303.516 278.33 184.774 278.33 111.536 312.362C38.2991 346.394 38.2991 401.572 111.537 435.605" fill="#f5f5f5" fill-rule="nonzero" opacity="1" stroke="none" vectornator:layerName="path"/>
</g>
</g>
<g opacity="1" vectornator:layerName="path">
<clipPath id="ClipPath_2">
<path d="M0 0L500 0L500 500L0 500L0 0Z"/>
</clipPath>
<g clip-path="url(#ClipPath_2)">
<path d="M278.83 385.845C259.302 395.153 227.642 395.153 208.115 385.845C188.587 376.539 188.587 361.449 208.115 352.141C227.642 342.835 259.302 342.835 278.83 352.141C298.357 361.449 298.357 376.539 278.83 385.845" fill="#e6e6e6" fill-rule="nonzero" opacity="1" stroke="none" vectornator:layerName="path"/>
<path d="M367.981 392.88C349.512 401.684 319.569 401.684 301.099 392.88C282.63 384.079 282.63 369.806 301.099 361.003C319.569 352.201 349.512 352.201 367.981 361.003C386.451 369.806 386.451 384.079 367.981 392.88" fill="#e6e6e6" fill-rule="nonzero" opacity="1" stroke="none" vectornator:layerName="path"/>
<path d="M186.15 393.273C167.279 402.268 136.685 402.268 117.814 393.273C98.9434 384.28 98.9434 369.697 117.814 360.703C136.685 351.71 167.279 351.71 186.15 360.703C205.021 369.697 205.021 384.28 186.15 393.273" fill="#e6e6e6" fill-rule="nonzero" opacity="1" stroke="none" vectornator:layerName="path"/>
</g>
</g>
<g opacity="1" vectornator:layerName="path">
<clipPath id="ClipPath_3">
<path d="M0 0L500 0L500 500L0 500L0 0Z"/>
</clipPath>
<g clip-path="url(#ClipPath_3)">
<path d="M120.3 333.596C119.528 324.001 110.989 304.683 100.03 293.025C89.0713 281.366 72.6833 273.515 61.8683 278.214C51.7963 282.59 54.0103 296.088 67.3013 304.081C80.5923 312.075 100.391 321.867 107.169 336.988L120.3 355.152L120.3 333.596Z" fill="#fadcc5" fill-rule="nonzero" opacity="1" stroke="none" vectornator:layerName="path"/>
<g opacity="0.100006" vectornator:layerName="path">
<clipPath id="ClipPath_4">
<path d="M55.5899 355.152L120.3 355.152L120.3 276.831L55.5899 276.831L55.5899 355.152Z"/>
</clipPath>
<g clip-path="url(#ClipPath_4)">
<path d="M120.3 333.596C119.528 324.001 110.989 304.683 100.03 293.025C89.0713 281.366 72.6833 273.515 61.8683 278.214C51.7963 282.59 54.0103 296.088 67.3013 304.081C80.5923 312.075 100.391 321.867 107.169 336.988L120.3 355.152L120.3 333.596Z" fill="#000000" fill-rule="nonzero" opacity="1" stroke="none" vectornator:layerName="path"/>
</g>
</g>
<path d="M122.064 346.67C121.756 346.67 121.474 346.466 121.387 346.157C112.328 313.918 83.689 289.425 67.356 284.817C66.982 284.712 66.764 284.323 66.87 283.95C66.974 283.578 67.354 283.353 67.737 283.463C84.381 288.158 113.545 313.049 122.741 345.776C122.846 346.15 122.628 346.538 122.255 346.643C122.191 346.662 122.126 346.67 122.064 346.67" fill="#ffffff" fill-rule="nonzero" opacity="1" stroke="none" vectornator:layerName="path"/>
<path d="M118.865 368.029C116.889 362.759 109.586 354.388 98.3382 347.892C85.8972 340.707 70.6782 338.166 66.7302 332.112C61.9872 324.839 67.8202 317.138 80.0492 317.666C92.2792 318.194 114.897 333.003 120.3 357.603L118.865 368.029Z" fill="#fadcc5" fill-rule="nonzero" opacity="1" stroke="none" vectornator:layerName="path"/>
<path d="M120.753 362.181C120.485 362.181 120.23 362.027 120.112 361.766C107.81 334.513 85.6079 326.385 75.5879 325.895C75.2009 325.876 74.9009 325.546 74.9199 325.159C74.9389 324.769 75.2529 324.472 75.6569 324.49C86.7369 325.032 108.837 333.37 121.394 361.188C121.554 361.541 121.396 361.959 121.042 362.119C120.948 362.161 120.85 362.181 120.753 362.181" fill="#ffffff" fill-rule="nonzero" opacity="1" stroke="none" vectornator:layerName="path"/>
<path d="M368.238 334.873C368.908 326.544 372.72 312.864 382.405 299.845C392.768 285.913 405.403 277.193 414.791 281.272C423.534 285.07 420.218 297.135 405.174 309.039C394.616 317.391 383.667 328.257 377.784 341.382L368.238 358.082L368.238 334.873Z" fill="#fadcc5" fill-rule="nonzero" opacity="1" stroke="none" vectornator:layerName="path"/>
<g opacity="0.100006" vectornator:layerName="path">
<clipPath id="ClipPath_5">
<path d="M368.238 358.082L419.561 358.082L419.561 280.264L368.238 280.264L368.238 358.082Z"/>
</clipPath>
<g clip-path="url(#ClipPath_5)">
<path d="M368.238 334.873C368.908 326.544 372.72 312.864 382.405 299.845C392.768 285.913 405.403 277.193 414.791 281.272C423.534 285.07 420.218 297.135 405.174 309.039C394.616 317.391 383.667 328.257 377.784 341.382L368.238 358.082L368.238 334.873Z" fill="#000000" fill-rule="nonzero" opacity="1" stroke="none" vectornator:layerName="path"/>
</g>
</g>
<path d="M369.082 341.222C369.324 341.222 369.552 341.073 369.639 340.832C378.025 317.742 395.489 294.376 410.261 286.484C410.55 286.329 410.658 285.971 410.505 285.682C410.349 285.392 409.991 285.286 409.703 285.438C394.703 293.454 377.001 317.094 368.526 340.428C368.414 340.735 368.572 341.075 368.88 341.186C368.947 341.21 369.016 341.222 369.082 341.222" fill="#ffffff" fill-rule="nonzero" opacity="1" stroke="none" vectornator:layerName="path"/>
<path d="M369.082 363.335C369.082 363.335 375.264 368.824 385.792 370.491C396.32 372.158 400.967 367.123 400.967 367.123C400.967 367.123 396.821 357.249 390.843 354.479C390.843 354.479 400.978 356.545 409.115 361.974C409.115 361.974 415.544 362.071 418.103 352.259C418.103 352.259 414.293 346.355 401.514 343.165C401.514 343.165 409.289 341.208 420.493 344.065C421.333 344.399 424.915 331.713 425.998 325.86C427.081 320.008 424.729 320.069 420.166 318.851C415.603 317.633 400.066 316.867 397.21 319.377C394.353 321.886 392.902 330.467 392.902 330.467C392.902 330.467 390.17 325.611 390.824 321.277C390.824 321.277 386.243 319.723 381.117 321.509C375.991 323.296 376.317 325.794 376.317 329.524C376.317 333.513 376.711 336.161 377.853 340.63C377.853 340.63 374.312 337.568 374.187 326.277C374.187 326.277 367.26 332.206 364.478 337.302C361.695 342.398 362.401 355.73 369.082 363.335" fill="#fadcc5" fill-rule="nonzero" opacity="1" stroke="none" vectornator:layerName="path"/>
<path d="M369.082 363.926C369.302 363.926 369.514 363.802 369.615 363.591C378.111 345.94 409.698 325.43 421.013 323.23C421.333 323.168 421.543 322.857 421.48 322.535C421.418 322.214 421.103 322.008 420.786 322.067C409.285 324.304 377.18 345.145 368.55 363.078C368.407 363.372 368.531 363.726 368.826 363.867C368.909 363.908 368.996 363.926 369.082 363.926" fill="#ffffff" fill-rule="nonzero" opacity="1" stroke="none" vectornator:layerName="path"/>
</g>
</g>
<path d="M222.662 166.149L212.649 200.205L223.591 205.84L232.122 177.443L222.662 166.149Z" fill="#ffa8a7" fill-rule="nonzero" opacity="1" stroke="none" vectornator:layerName="path"/>
<g opacity="1" vectornator:layerName="path">
<clipPath id="ClipPath_6">
<path d="M0 0L500 0L500 500L0 500L0 0Z"/>
</clipPath>
<g clip-path="url(#ClipPath_6)">
<path d="M233.817 152.736C228.512 153.308 223.875 158.086 221.738 165.578C219.603 173.069 216.712 184.721 216.712 184.721C216.712 184.721 222.532 191.093 230.434 189.163L233.817 152.736Z" fill="#e6e6e6" fill-rule="nonzero" opacity="1" stroke="none" vectornator:layerName="path"/>
<path d="M220.166 350.166L220.189 348.729C219.596 350.406 216.852 357.62 212.808 361.193C209.593 364.033 205.216 367.303 204.066 370.509C202.869 373.842 210.011 375.082 212.98 374.604C216.431 374.05 220.913 372.168 223.382 369.23C225.119 367.165 226.243 364.701 227.486 363.074C228.728 361.448 231.561 359.655 232.249 357.761C232.627 356.72 232.234 354.421 231.757 352.477C231.32 350.693 230.846 348.731 230.236 348.889C230.231 349.105 230.219 349.984 230.219 349.984C229.477 350.781 227.446 351.551 225.169 351.603C223.698 351.636 220.136 351.287 220.166 350.166" fill="#422c1b" fill-rule="nonzero" opacity="1" stroke="none" vectornator:layerName="path"/>
<path d="M209.899 363.69C210.896 362.828 211.898 361.987 212.809 361.183C215.634 358.686 217.825 354.412 219.091 351.491C219.814 349.823 220.2 348.038 220.229 346.22L220.32 340.494L230.856 340.002L230.22 349.974L230.22 349.976L230.216 350.224L230.165 350.249C229.648 352.329 224.949 357.81 222.272 361.389C220.478 363.79 217.092 366.825 213.096 367.294C209.31 367.738 207.398 366.516 209.899 363.69" fill="#ffa8a7" fill-rule="nonzero" opacity="1" stroke="none" vectornator:layerName="path"/>
<path d="M271.573 352.003L271.19 350.618C271.094 352.394 270.493 360.088 267.619 364.656C265.334 368.287 262.055 372.657 261.854 376.057C261.645 379.593 268.847 378.771 271.562 377.476C274.716 375.972 278.487 372.904 280.029 369.389C281.114 366.918 281.498 364.237 282.232 362.327C282.966 360.417 285.179 357.898 285.305 355.887C285.376 354.782 284.351 352.687 283.345 350.955C282.424 349.367 281.417 347.619 280.876 347.941C280.932 348.15 281.168 348.997 281.168 348.997C280.68 349.97 278.948 351.281 276.778 351.972C275.376 352.418 271.86 353.087 271.573 352.003" fill="#5c422e" fill-rule="nonzero" opacity="1" stroke="none" vectornator:layerName="path"/>
<path d="M265.531 367.872C266.245 366.764 266.969 365.675 267.616 364.646C269.624 361.455 270.522 356.736 270.915 353.577C271.138 351.774 271.007 349.951 270.522 348.2L268.996 342.679L278.681 340.002L281.166 348.988L281.166 348.987L281.166 348.989L281.232 349.228L281.19 349.267C281.28 351.408 278.315 357.991 276.755 362.179C275.71 364.988 273.315 368.854 269.614 370.429C266.106 371.922 263.927 371.288 265.531 367.872" fill="#ffa8a7" fill-rule="nonzero" opacity="1" stroke="none" vectornator:layerName="path"/>
<path d="M266.151 205.229C271.73 212.39 272.737 219.787 271.519 240.725C270.301 261.663 269.918 279.172 270.225 280.347C270.533 281.522 275.067 291.139 276.732 298.908C278.683 308.004 279.16 341.732 279.16 341.732C279.16 341.732 275.568 345.805 269.449 344.316C269.449 344.316 253.289 290.003 251.723 285.289C250.158 280.575 240.221 230.968 240.221 230.968L241.731 202.962L266.151 205.229Z" fill="#634833" fill-rule="nonzero" opacity="1" stroke="none" vectornator:layerName="path"/>
<path d="M223.517 229.316C224.367 219.65 226.436 202.898 226.436 202.898L251.157 201.447C255.163 207.686 253.42 218.067 252.33 227.444L238.194 282.797C238.48 285.445 240.922 291.067 238.194 305.316C235.148 321.229 230.939 342.19 230.939 342.19C230.939 342.19 225.621 344.643 220.29 342.398C220.29 342.398 218.245 291.992 219.553 278.224C220.969 263.327 222.935 235.931 223.517 229.316" fill="#634833" fill-rule="nonzero" opacity="1" stroke="none" vectornator:layerName="path"/>
<path d="M244.554 252.794L240.519 232.488C240.519 232.488 234.496 230.396 230.433 227.344C230.433 227.344 233.758 231.634 237.494 233.851L244.554 252.794Z" fill="#422c1b" fill-rule="nonzero" opacity="1" stroke="none" vectornator:layerName="path"/>
<path d="M223.591 149.66L243.501 149.66C256.956 149.66 267.864 138.752 267.864 125.296C267.864 113.07 257.953 103.16 245.728 103.16C233.502 103.16 223.591 113.07 223.591 125.296L223.591 149.66Z" fill="#263238" fill-rule="nonzero" opacity="1" stroke="none" vectornator:layerName="path"/>
<path d="M264.15 153.44C267.988 153.63 270.818 154.355 273.425 161.904C276.032 169.453 281.484 198.425 279.657 201.448L267.521 196.332L264.469 180.418C257.61 174.529 258.026 155.559 264.15 153.44" fill="#ffa8a7" fill-rule="nonzero" opacity="1" stroke="none" vectornator:layerName="path"/>
<path d="M228.002 187.193C227.393 192.835 225.117 213.7 225.117 213.7C243.752 223.644 266.864 217.056 270.402 212.957C267.197 202.411 263.75 196.407 261.114 193.6L264.469 180.417C264.469 180.417 256.153 168.52 264.15 153.44L254.269 152.632L239.758 152.207C236.288 152.401 233.816 152.736 233.816 152.736C231.593 154.816 228.088 160.532 225.817 166.347C224.353 170.096 222.769 176.086 228.002 187.193" fill="#f5f5f5" fill-rule="nonzero" opacity="1" stroke="none" vectornator:layerName="path"/>
<path d="M264.15 153.44C268.521 153.194 271.142 154.273 274.301 161.294C277.462 168.316 280.024 185.452 280.024 185.452C280.024 185.452 277.346 190.881 264.15 189.342L262.121 177.444C262.121 177.444 256.305 165.072 264.15 153.44" fill="#e6e6e6" fill-rule="nonzero" opacity="1" stroke="none" vectornator:layerName="path"/>
<path d="M262.78 187.053C262.616 187.7 258.255 193.466 256.115 194.832C253.975 196.199 259.906 198.073 260.743 201.447C262.433 208.266 257.52 215.627 240.846 216.076C236.911 216.183 236.742 217.015 238.776 218.224C253.592 220.657 267.701 216.086 270.402 212.956C267.197 202.41 263.75 196.407 261.114 193.599L262.78 187.053Z" fill="#e6e6e6" fill-rule="nonzero" opacity="1" stroke="none" vectornator:layerName="path"/>
<path d="M231.497 112.801C229.159 114.183 226.269 120.064 226.554 132.392C226.796 142.842 230.183 145.423 231.884 146.167C233.584 146.91 236.864 146.458 240.053 145.926L240.053 152.197C240.053 152.197 240.353 154.461 242.036 155.514C244.634 157.14 247.712 156.521 249.436 155.9C253.247 154.528 254.007 152.654 254.007 152.654L253.936 138.234C253.936 138.234 255.812 140.057 258.995 137.275C261.622 134.978 262.506 131.105 260.459 129.028C258.413 126.949 254.628 127.515 253.177 130.478C253.177 130.478 251.307 130.631 249.436 127.158C249.436 127.158 249.498 117.721 247.398 116.491C240.73 112.589 235.98 112.801 231.497 112.801" fill="#ffa8a7" fill-rule="nonzero" opacity="1" stroke="none" vectornator:layerName="path"/>
<path d="M238.22 129.104C238.182 129.857 238.739 130.495 239.463 130.53C240.188 130.564 240.807 129.981 240.845 129.229C240.882 128.475 240.325 127.837 239.6 127.803C238.875 127.769 238.258 128.351 238.22 129.104" fill="#263238" fill-rule="nonzero" opacity="1" stroke="none" vectornator:layerName="path"/>
<g opacity="0.5" vectornator:layerName="path">
<clipPath id="ClipPath_7">
<path d="M234.817 140.767L237.937 140.767L237.937 138.625L234.817 138.625L234.817 140.767Z"/>
</clipPath>
<g clip-path="url(#ClipPath_7)">
<path d="M237.869 138.625L234.817 139.599C235.071 140.472 235.959 140.962 236.802 140.693C237.645 140.425 238.122 139.499 237.869 138.625" fill="#f28f8f" fill-rule="nonzero" opacity="1" stroke="none" vectornator:layerName="path"/>
</g>
</g>
<path d="M228.174 125.018L230.833 123.175C230.347 122.416 229.359 122.213 228.625 122.723C227.891 123.231 227.689 124.259 228.174 125.018" fill="#263238" fill-rule="nonzero" opacity="1" stroke="none" vectornator:layerName="path"/>
<path d="M240.052 124.491L243.072 125.651C243.426 124.822 243.037 123.891 242.203 123.571C241.369 123.251 240.406 123.663 240.052 124.491" fill="#263238" fill-rule="nonzero" opacity="1" stroke="none" vectornator:layerName="path"/>
<path d="M227.585 128.817C227.547 129.57 228.104 130.208 228.829 130.243C229.554 130.277 230.172 129.694 230.21 128.942C230.248 128.188 229.69 127.55 228.966 127.516C228.241 127.482 227.623 128.064 227.585 128.817" fill="#263238" fill-rule="nonzero" opacity="1" stroke="none" vectornator:layerName="path"/>
<g opacity="0.5" vectornator:layerName="path">
<clipPath id="ClipPath_8">
<path d="M229.887 135.975L234.258 135.975L234.258 128.065L229.887 128.065L229.887 135.975Z"/>
</clipPath>
<g clip-path="url(#ClipPath_8)">
<path d="M234.258 128.065L234.049 135.975L229.886 134.685L234.258 128.065Z" fill="#f28f8f" fill-rule="nonzero" opacity="1" stroke="none" vectornator:layerName="path"/>
</g>
</g>
<g opacity="0.5" vectornator:layerName="path">
<clipPath id="ClipPath_9">
<path d="M240.052 148.018L251.403 148.018L251.403 140.766L240.052 140.766L240.052 148.018Z"/>
</clipPath>
<g clip-path="url(#ClipPath_9)">
<path d="M240.052 145.926C243.412 145.486 250.325 143.499 251.402 140.766C251.402 140.766 251.044 142.484 248.979 144.254C246.913 146.024 240.052 148.018 240.052 148.018L240.052 145.926Z" fill="#f28f8f" fill-rule="nonzero" opacity="1" stroke="none" vectornator:layerName="path"/>
</g>
</g>
<path d="M248.931 104.343L249.442 98.5388C247.813 98.3418 246.377 99.4808 246.236 101.084C246.095 102.686 247.301 104.146 248.931 104.343" fill="#263238" fill-rule="nonzero" opacity="1" stroke="none" vectornator:layerName="path"/>
<path d="M249.242 104.929L253.941 101.486C253.015 100.13 251.213 99.8032 249.915 100.754C248.617 101.705 248.316 103.574 249.242 104.929" fill="#263238" fill-rule="nonzero" opacity="1" stroke="none" vectornator:layerName="path"/>
<path d="M253.177 130.478L253.177 135.975C251.112 135.975 249.436 134.3 249.436 132.233L249.436 127.158L253.177 130.478Z" fill="#263238" fill-rule="nonzero" opacity="1" stroke="none" vectornator:layerName="path"/>
<path d="M238.218 104.466L238.218 104.466C227.954 104.466 219.634 112.787 219.634 123.05L219.634 125.46L228.728 125.46C232.961 125.46 236.544 122.331 237.114 118.136L237.447 125.46C240.937 125.46 243.848 122.792 244.151 119.316L244.256 118.122C244.587 122.266 248.046 125.46 252.203 125.46L253.01 125.46L253.941 112.329L238.218 104.466Z" fill="#263238" fill-rule="nonzero" opacity="1" stroke="none" vectornator:layerName="path"/>
<path d="M241.435 132.504L240.762 132.504C238.764 132.504 237.138 130.878 237.138 128.879C237.138 126.88 238.764 125.254 240.762 125.254L241.435 125.254C243.434 125.254 245.06 126.88 245.06 128.879C245.06 130.878 243.434 132.504 241.435 132.504M228.142 132.504L227.468 132.504C225.47 132.504 223.844 130.878 223.844 128.879C223.844 126.88 225.47 125.254 227.468 125.254L228.142 125.254C230.14 125.254 231.767 126.88 231.767 128.879C231.767 130.878 230.14 132.504 228.142 132.504M256.089 127.984L245.701 127.984C245.286 126.008 243.532 124.52 241.435 124.52L240.762 124.52C238.946 124.52 237.389 125.637 236.734 127.219C236.139 126.585 235.223 126.164 234.19 126.111C233.288 126.065 232.503 126.313 231.94 126.783C231.196 125.441 229.782 124.52 228.142 124.52L227.468 124.52C225.064 124.52 223.108 126.475 223.108 128.879C223.108 131.283 225.064 133.239 227.468 133.239L228.142 133.239C230.546 133.239 232.501 131.283 232.501 128.879C232.501 128.393 232.403 127.933 232.255 127.496C232.67 127.052 233.362 126.805 234.153 126.845C235.148 126.896 236.053 127.357 236.456 128.019L236.492 127.997C236.434 128.282 236.402 128.577 236.402 128.879C236.402 131.283 238.358 133.239 240.762 133.239L241.435 133.239C243.839 133.239 245.795 131.283 245.795 128.879C245.795 128.824 245.781 128.774 245.779 128.719L254.618 128.719C254.988 128.426 255.485 128.185 256.089 127.984" fill="#634833" fill-rule="nonzero" opacity="1" stroke="none" vectornator:layerName="path"/>
<path d="M279.657 201.447C276.95 204.613 252.33 227.444 252.33 227.444L253.177 213.648L267.521 196.331L279.657 201.447Z" fill="#ffa8a7" fill-rule="nonzero" opacity="1" stroke="none" vectornator:layerName="path"/>
<path d="M232.095 238.025L240.441 232.109C248.41 226.458 257.911 217.581 257.911 207.368C257.911 200.216 252.114 193.648 244.962 192.696C238.382 191.82 232.948 198.297 232.122 204.544C231.297 198.078 225.862 190.154 219.282 189.278C212.131 188.327 206.333 193.353 206.333 200.504C206.333 210.73 215.807 222.124 223.754 229.882L232.095 238.025Z" fill="#f16a6b" fill-rule="nonzero" opacity="1" stroke="none" vectornator:layerName="path"/>
<path d="M254.793 217.682C251.444 219.694 245.721 219.748 241.869 219.921C238.018 220.094 233.263 225.984 236.388 228.359C239.147 230.456 246.307 232.357 252.33 227.445L254.793 217.682Z" fill="#ffa8a7" fill-rule="nonzero" opacity="1" stroke="none" vectornator:layerName="path"/>
<path d="M206.722 204.214C205.799 204.949 205.529 207.359 206.095 209.923C206.628 212.345 208.818 216.465 211.904 217.682C213.309 218.236 219.437 218.422 222.386 215.251C225.513 211.888 225.26 206.145 220.773 207.157C214.824 208.499 207.75 207.817 207.75 207.817C207.348 206.751 207.005 205.552 206.722 204.214" fill="#ffa8a7" fill-rule="nonzero" opacity="1" stroke="none" vectornator:layerName="path"/>
</g>
</g>
<path d="M369.333 372.871L359.479 372.871L359.479 358.519L369.333 358.519L369.333 372.871Z" fill="#ffa8a7" fill-rule="nonzero" opacity="1" stroke="none" vectornator:layerName="path"/>
<g opacity="1" vectornator:layerName="path">
<clipPath id="ClipPath_10">
<path d="M0 0L500 0L500 500L0 500L0 0Z"/>
</clipPath>
<g clip-path="url(#ClipPath_10)">
<path d="M359.478 368.006L359.478 366.596C358.535 367.007 356.344 375.366 352.434 378.933C349.325 381.768 345.084 385.043 344.006 388.204C342.884 391.491 349.912 393.306 352.816 392.792C356.19 392.194 362.039 389.818 363.507 387.616C364.975 385.414 365.663 382.164 366.856 380.549C368.048 378.935 370.799 377.133 371.444 375.265C371.798 374.238 371.377 371.991 370.879 370.091C370.422 368.349 369.928 366.433 369.332 366.596C369.332 366.809 369.332 367.671 369.332 367.671C368.618 368.464 366.638 369.251 364.406 369.337C362.963 369.392 359.466 369.106 359.478 368.006" fill="#422c1b" fill-rule="nonzero" opacity="1" stroke="none" vectornator:layerName="path"/>
<path d="M325.868 361.888L316.018 362.227L316.86 347.714L326.71 347.375L325.868 361.888Z" fill="#ffa8a7" fill-rule="nonzero" opacity="1" stroke="none" vectornator:layerName="path"/>
<path d="M316.195 359.19C315.683 359.208 315.293 359.928 314.164 361.149C312.799 362.626 310.568 364.218 308.367 365.32C304.676 367.168 297.502 370.009 294.255 371.472C292.226 372.386 292.322 374.836 294.419 376.231C296.515 377.625 301.578 378.629 307.656 377.27C310.967 376.529 315.278 373.471 318.007 373.636C320.735 373.801 325.841 373.762 327.854 372.374C329.869 370.985 329.063 368.021 328.494 365.474C327.873 362.693 326.983 358.345 326.062 358.534L325.996 359.692C324.81 361.486 318.719 361.847 316.117 360.526L316.195 359.19Z" fill="#422c1b" fill-rule="nonzero" opacity="1" stroke="none" vectornator:layerName="path"/>
<path d="M327.427 174.734C322.977 179.004 296.757 192.684 295.317 192.484C293.157 192.184 285.357 184.444 278.617 177.364C277.567 171.944 276.027 165.114 274.307 161.294C272.977 158.344 271.747 156.444 270.437 155.244L270.887 153.404L296.267 177.444C296.267 177.444 324.117 156.484 328.217 155.244C332.307 154.004 331.877 170.464 327.427 174.734" fill="#f28f8f" fill-rule="nonzero" opacity="1" stroke="none" vectornator:layerName="path"/>
<path d="M261.005 150.292C257.595 151.142 255.005 153.439 255.568 157.117C255.939 159.542 259.94 161.305 262.086 159.468C263.822 157.98 268.998 154.413 271.369 156.24C271.741 156.99 272.064 157.835 271.9 159.753C271.735 161.67 272.72 163.037 273.304 162.945C273.887 162.854 274.777 159.801 274.865 158.598C275.001 156.741 273.938 151.285 265.627 150.175C265.627 150.175 265.645 150.193 265.651 150.2C264.05 149.944 262.269 149.977 261.005 150.292" fill="#ffa8a7" fill-rule="nonzero" opacity="1" stroke="none" vectornator:layerName="path"/>
<path d="M389.081 211.533C388.858 208.55 383.793 194.954 381.269 189.342L368.504 195.319L373.39 206.519L386.62 216.743C390.046 216.223 389.175 212.793 389.081 211.533" fill="#ffa8a7" fill-rule="nonzero" opacity="1" stroke="none" vectornator:layerName="path"/>
<path d="M364.08 219.667C364.08 229.078 365.297 289.956 365.297 289.956C365.526 292.664 368.98 301.575 369.333 314.157C369.73 328.299 370.155 360.184 370.155 360.184C370.155 360.184 365.533 364.765 359.01 360.184C359.01 360.184 348.262 313.644 344.953 295.962C343.412 283.743 339.558 248.689 339.558 248.689L331.559 288.592C331.559 288.592 332.601 294.514 332.601 302.763C332.601 309.255 326.929 351.425 326.929 351.425C326.929 351.425 321.364 354.802 316.018 351.599C316.018 351.599 312.812 294.535 312.722 288.593C312.61 281.328 317.985 219.667 317.985 219.667L364.08 219.667Z" fill="#5c422e" fill-rule="nonzero" opacity="1" stroke="none" vectornator:layerName="path"/>
<path d="M339.558 248.689L338.414 240.168C338.414 240.168 330.977 236.757 328.379 234.345C328.379 234.345 333.052 240.513 335.987 242.231L332.39 284.445L339.558 248.689Z" fill="#422c1b" fill-rule="nonzero" opacity="1" stroke="none" vectornator:layerName="path"/>
<path d="M332.043 154.043C326.871 153.98 319.96 158.524 314.2 162.949C308.441 167.374 303.582 171.115 303.582 171.115C304.616 176.538 308.026 181.497 311.745 185.563L328.259 176.605C328.259 176.605 335.465 161.981 332.043 154.043" fill="#e6e6e6" fill-rule="nonzero" opacity="1" stroke="none" vectornator:layerName="path"/>
<path d="M349.245 154.489C358.081 156.616 369.295 160.185 373.219 168.329C377.143 176.473 383.202 189.673 383.202 189.673C379.218 193.59 374.362 196.497 368.571 198.321L364.08 190.504L364.08 219.666C357.169 227.184 333.076 230.687 317.985 219.666L317.985 171.626C317.985 163.949 322.25 154.728 334.027 154.043L349.245 154.489Z" fill="#f5f5f5" fill-rule="nonzero" opacity="1" stroke="none" vectornator:layerName="path"/>
<path d="M364.08 190.504C364.08 190.504 359.649 182.815 358.687 180.965L364.08 199.524L364.08 190.504Z" fill="#e6e6e6" fill-rule="nonzero" opacity="1" stroke="none" vectornator:layerName="path"/>
<path d="M352.561 115.203C352.561 115.203 355.003 114.785 356.907 116.731C358.773 118.639 358.385 122.172 356.904 130.29L351.136 130.952L352.561 115.203Z" fill="#263238" fill-rule="nonzero" opacity="1" stroke="none" vectornator:layerName="path"/>
<path d="M318.932 112.855C318.932 112.855 316.602 112.856 315.324 112.122C313.553 111.105 313.09 113.117 314.061 114.865C315.032 116.613 316.843 118.891 320.753 119.322C320.805 119.071 322.409 114.817 322.409 114.817L318.932 112.855Z" fill="#263238" fill-rule="nonzero" opacity="1" stroke="none" vectornator:layerName="path"/>
<path d="M349.855 130.956C350.711 131.467 351.934 129.822 352.99 128.717C354.045 127.612 357.493 126.102 359.212 129.726C360.965 133.419 356.987 138.33 354.651 139.953C351.876 141.881 349.856 140.368 349.856 140.368L349.245 154.489C349.245 154.489 346.181 161.983 337.888 163.107C329.595 164.231 331.303 157.394 334.027 154.043L334.04 148.909C334.04 148.909 329.76 149.753 327.735 149.232C325.59 148.681 322.735 146.604 321.593 142.91C320.159 138.272 318.452 130.304 320.197 119.693C322.303 106.879 336.75 106.667 344.846 111.763C352.943 116.86 349.855 130.956 349.855 130.956" fill="#ffa8a7" fill-rule="nonzero" opacity="1" stroke="none" vectornator:layerName="path"/>
<path d="M349.855 132.397C350.286 132.405 351.923 129.688 352.99 128.718C354.466 127.374 352.561 115.204 352.561 115.204C352.561 115.204 354.055 110.587 351.136 107.526C348.217 104.465 342.56 104.981 338.424 104.833C334.121 104.677 329.512 104.418 323.637 101.866C317.763 99.3135 317.324 99.0115 316.594 101.591C315.866 104.171 315.591 110.08 319.097 114.039L322.014 115.111C322.014 115.111 323.588 116.508 329.068 117.176C334.547 117.843 343.081 117.047 344.248 116.888C345.836 116.67 346.175 118.21 347.033 122.417C347.784 126.11 348.408 132.369 349.855 132.397" fill="#263238" fill-rule="nonzero" opacity="1" stroke="none" vectornator:layerName="path"/>
<path d="M352.554 116.149L357.732 113.37C356.996 111.886 355.242 111.306 353.812 112.073C352.382 112.84 351.819 114.666 352.554 116.149" fill="#263238" fill-rule="nonzero" opacity="1" stroke="none" vectornator:layerName="path"/>
<path d="M334.04 148.909C334.04 148.909 341.719 147.362 344.403 145.935C346.199 144.98 347.679 143.325 348.113 142.263C348.113 142.263 347.611 144.542 346.006 146.594C344.042 149.104 334.04 150.952 334.04 150.952L334.04 148.909Z" fill="#f28f8f" fill-rule="nonzero" opacity="1" stroke="none" vectornator:layerName="path"/>
<path d="M335.886 129.036C335.886 129.919 336.574 130.633 337.424 130.63C338.274 130.628 338.963 129.91 338.963 129.028C338.963 128.144 338.274 127.431 337.424 127.433C336.574 127.435 335.886 128.153 335.886 129.036" fill="#263238" fill-rule="nonzero" opacity="1" stroke="none" vectornator:layerName="path"/>
<path d="M337.796 122.665L341.088 124.482C341.573 123.536 341.23 122.363 340.32 121.861C339.412 121.359 338.281 121.719 337.796 122.665" fill="#263238" fill-rule="nonzero" opacity="1" stroke="none" vectornator:layerName="path"/>
<path d="M336.001 139.469L332.488 140.787C332.836 141.794 333.904 142.315 334.874 141.951C335.844 141.587 336.349 140.476 336.001 139.469" fill="#f28f8f" fill-rule="nonzero" opacity="1" stroke="none" vectornator:layerName="path"/>
<path d="M321.625 124.606L324.627 122.294C324.015 121.435 322.847 121.255 322.018 121.894C321.188 122.532 321.014 123.747 321.625 124.606" fill="#263238" fill-rule="nonzero" opacity="1" stroke="none" vectornator:layerName="path"/>
<path d="M323.088 128.598C323.088 129.481 323.777 130.195 324.627 130.192C325.477 130.19 326.166 129.472 326.166 128.589C326.166 127.706 325.477 126.993 324.627 126.995C323.777 126.997 323.088 127.715 323.088 128.598" fill="#263238" fill-rule="nonzero" opacity="1" stroke="none" vectornator:layerName="path"/>
<path d="M330.928 127.139L330.422 136.392L325.591 134.746L330.928 127.139Z" fill="#f28f8f" fill-rule="nonzero" opacity="1" stroke="none" vectornator:layerName="path"/>
<path d="M313.472 227.054L320.082 223.534C326.394 220.172 333.918 214.468 333.918 206.378C333.918 200.715 329.327 194.702 323.663 192.95C318.451 191.337 314.148 195.708 313.493 200.54C312.84 195.304 308.535 188.269 303.325 186.657C297.66 184.904 293.069 188.075 293.069 193.739C293.069 201.838 300.572 212.185 306.867 219.44L313.472 227.054Z" fill="#f16a6b" fill-rule="nonzero" opacity="1" stroke="none" vectornator:layerName="path"/>
<path d="M386.62 216.743L373.39 206.519C373.39 206.519 346.721 210.858 343.589 211.104C340.457 211.35 337.702 208.983 336.508 205.908C335.314 202.834 333.452 203.169 333.452 203.169C333.999 204.995 334.012 206.753 333.748 208.465C332.674 209.616 326.501 210.779 322.339 209.37C318.176 207.96 312.15 210.007 315.883 215.675C319.616 221.344 326.874 221.997 331.917 222.001C333.311 222.002 335.788 221.896 338.223 221.58C339.854 221.368 341.476 221.203 343.118 221.086C353.438 220.351 381.929 218.216 386.62 216.743" fill="#ffa8a7" fill-rule="nonzero" opacity="1" stroke="none" vectornator:layerName="path"/>
</g>
</g>
<g opacity="1" vectornator:layerName="path">
<clipPath id="ClipPath_11">
<path d="M0 0L500 0L500 500L0 500L0 0Z"/>
</clipPath>
<g clip-path="url(#ClipPath_11)">
<path d="M150.141 153.821C159.242 152.155 159.643 153.405 188.278 169.427C188.278 169.427 222.012 155.748 226.011 153.439C230.009 151.131 235.745 149.589 240.051 152.196C239.347 152.23 237.67 152.399 236.999 152.72C236.507 152.956 234.875 153.799 235.078 154.554C235.162 154.868 235.554 154.967 235.879 154.99C236.577 155.041 237.282 155.006 237.972 154.885C238.767 154.747 239.724 154.546 240.269 155.141C240.716 155.629 240.6 156.443 240.193 156.964C239.786 157.485 239.165 157.784 238.566 158.066C237.58 158.529 236.595 158.993 235.608 159.457C234.894 159.793 234.175 160.132 233.545 160.607C232.953 161.054 232.451 161.613 231.842 162.035C229.945 163.349 227.713 162.667 225.718 163.516C225.379 163.66 225.041 163.836 224.706 163.994C223.24 164.685 221.836 165.512 220.443 166.338C216.361 168.758 212.374 171.339 208.369 173.883C204.471 176.36 200.58 178.868 196.56 181.145C195.095 181.975 193.508 182.994 191.849 183.39C186.795 184.596 158.116 172.109 158.116 172.109L150.141 153.821Z" fill="#9e6767" fill-rule="nonzero" opacity="1" stroke="none" vectornator:layerName="path"/>
<path d="M145.806 145.999L138.769 145.999C128.368 145.999 119.936 137.567 119.936 127.166L119.936 124.004C119.936 113.542 128.417 105.061 138.879 105.061L145.696 105.061C156.158 105.061 164.639 113.542 164.639 124.004L164.639 127.166C164.639 137.567 156.207 145.999 145.806 145.999" fill="#e5ba9d" fill-rule="nonzero" opacity="1" stroke="none" vectornator:layerName="path"/>
<path d="M128.932 369.557L128.932 368.12C129.499 369.806 132.128 377.062 136.115 380.699C139.285 383.59 143.608 386.929 144.708 390.152C145.852 393.504 138.691 394.63 135.729 394.106C132.288 393.496 127.837 391.544 125.414 388.567C123.71 386.474 122.625 383.993 121.409 382.347C120.193 380.701 117.389 378.864 116.73 376.958C116.369 375.912 116.798 373.62 117.306 371.683C117.772 369.907 118.277 367.953 118.883 368.12C118.885 368.336 118.883 369.215 118.883 369.215C119.613 370.024 121.631 370.826 123.907 370.913C125.378 370.97 128.944 370.678 128.932 369.557" fill="#422c1b" fill-rule="nonzero" opacity="1" stroke="none" vectornator:layerName="path"/>
<path d="M138.983 383.241C138 382.364 137.011 381.507 136.113 380.688C133.328 378.147 131.205 373.838 129.985 370.898C129.289 369.219 128.931 367.427 128.931 365.61L128.931 359.883L118.882 359.883L118.882 369.205L118.882 369.206L118.882 369.455L118.933 369.48C119.417 371.568 124.028 377.123 126.648 380.744C128.404 383.173 131.741 386.262 135.729 386.794C139.507 387.298 141.439 386.107 138.983 383.241" fill="#9e6767" fill-rule="nonzero" opacity="1" stroke="none" vectornator:layerName="path"/>
<path d="M168.127 359.65L168.127 358.213C168.694 359.899 171.323 367.155 175.31 370.792C178.48 373.683 182.803 377.022 183.903 380.245C185.047 383.597 177.886 384.724 174.924 384.199C171.483 383.59 167.032 381.638 164.609 378.661C162.905 376.567 161.82 374.087 160.604 372.441C159.388 370.795 156.584 368.957 155.925 367.052C155.564 366.005 155.993 363.713 156.501 361.777C156.967 360 157.472 358.046 158.078 358.213C158.08 358.43 158.078 359.309 158.078 359.309C158.808 360.117 160.826 360.92 163.102 361.007C164.573 361.063 168.139 360.772 168.127 359.65" fill="#422c1b" fill-rule="nonzero" opacity="1" stroke="none" vectornator:layerName="path"/>
<path d="M178.179 373.335C177.196 372.458 176.207 371.601 175.309 370.782C172.524 368.241 170.401 363.932 169.181 360.992C168.485 359.313 168.127 357.521 168.127 355.704L168.127 349.976L158.078 349.976L158.078 359.299L158.078 359.3L158.078 359.549L158.129 359.574C158.613 361.662 163.224 367.217 165.844 370.838C167.6 373.267 170.937 376.356 174.925 376.888C178.703 377.392 180.635 376.2 178.179 373.335" fill="#9e6767" fill-rule="nonzero" opacity="1" stroke="none" vectornator:layerName="path"/>
<path d="M120.882 213.388C113.091 230.403 121.163 290.341 121.163 290.341C120.929 293.102 117.772 298.535 116.596 310.687C115.206 325.047 118.776 361.1 118.776 361.1C118.776 361.1 123.429 364.143 128.931 361.504C128.931 361.504 138.508 307.203 140.309 292.927C141.881 280.468 144.897 253.072 144.897 253.072L153.47 292.86C153.47 292.86 151.27 299.839 150.755 305.157C149.942 313.555 158.078 352.653 158.078 352.653C158.078 352.653 161.545 353.925 168.127 352.955C168.127 352.955 171.005 301.07 171.763 290.954C173.037 273.965 168.526 220.955 165.409 210.898L120.882 213.388Z" fill="#634833" fill-rule="nonzero" opacity="1" stroke="none" vectornator:layerName="path"/>
<path d="M144.898 253.072L147.428 237.268C147.428 237.268 158.127 235.052 162.981 230.49C162.981 230.49 157.889 236.822 150.327 238.897L147.486 251.064L152.452 287.905L144.898 253.072Z" fill="#422c1b" fill-rule="nonzero" opacity="1" stroke="none" vectornator:layerName="path"/>
<path d="M134.624 154.276L134.624 154.276C124.637 154.963 123.936 159.786 121.436 165.062C119.534 169.077 119.513 173.734 120.964 177.934L127.924 198.069C127.924 198.069 124.666 205.945 120.882 213.388C138.349 223.136 160.158 218.012 165.41 210.898C165.632 209.389 164.282 197.593 163.451 189.887C166.527 182.171 167.339 177.279 166.041 172.178C163.632 162.71 154.279 153.485 150.141 153.821L134.624 154.276Z" fill="#f5f5f5" fill-rule="nonzero" opacity="1" stroke="none" vectornator:layerName="path"/>
<path d="M128.615 211.833C128.615 211.833 130.673 203.636 131.408 201.868C132.531 199.168 134.945 199.523 134.945 199.523C132.681 198.022 131.11 195.68 130.579 193.016L128.46 182.369C128.46 182.369 132.397 169.862 131.997 165.577L121.974 166.156C121.974 166.156 121.47 166.507 120.678 167.058C119.583 170.575 119.747 174.413 120.965 177.934L127.925 198.069C127.925 198.069 124.666 205.945 120.883 213.388C133.755 220.572 148.978 219.675 158.202 215.86L128.615 211.833Z" fill="#e6e6e6" fill-rule="nonzero" opacity="1" stroke="none" vectornator:layerName="path"/>
<path d="M108.184 205.991C108.241 205.199 111.687 184.014 114.427 169.713C116.275 160.068 120.107 156.543 127.635 155.377L130.297 154.964C133.865 166.69 131.408 172.002 126.705 180.032L122.258 201.448L111.51 212.321C107.814 211.587 108.104 207.107 108.184 205.991" fill="#9e6767" fill-rule="nonzero" opacity="1" stroke="none" vectornator:layerName="path"/>
<path d="M157.297 114.1C159.658 115.495 162.576 121.433 162.288 133.882C162.044 144.433 158.624 147.038 156.907 147.79C155.19 148.541 151.878 148.084 148.659 147.548L148.659 153.879C148.659 153.879 153.108 159.048 152.828 161.951C152.548 164.855 146.403 165.541 142.239 162.704C138.075 159.868 135.406 155.551 135.406 155.551L135.406 140.245C135.406 140.245 133.232 143.147 129.677 140.787C126.122 138.426 125.987 132.582 128.054 130.484C130.12 128.386 134.575 129.05 135.406 131.949C135.406 131.949 140.54 132.137 147.378 128.38C154.215 124.624 156.842 118.191 157.297 114.1" fill="#9e6767" fill-rule="nonzero" opacity="1" stroke="none" vectornator:layerName="path"/>
<path d="M150.508 131.231C150.546 131.991 149.984 132.636 149.252 132.67C148.52 132.705 147.896 132.117 147.858 131.357C147.82 130.597 148.382 129.952 149.114 129.918C149.845 129.883 150.47 130.471 150.508 131.231" fill="#263238" fill-rule="nonzero" opacity="1" stroke="none" vectornator:layerName="path"/>
<path d="M150.862 140.175L153.944 141.158C153.688 142.04 152.791 142.534 151.94 142.263C151.089 141.992 150.607 141.057 150.862 140.175" fill="#874c4c" fill-rule="nonzero" opacity="1" stroke="none" vectornator:layerName="path"/>
<path d="M161.387 127.158L158.702 125.297C159.192 124.531 160.19 124.326 160.932 124.84C161.673 125.354 161.877 126.391 161.387 127.158" fill="#263238" fill-rule="nonzero" opacity="1" stroke="none" vectornator:layerName="path"/>
<path d="M160.768 130.272C160.806 131.032 160.244 131.677 159.512 131.711C158.78 131.746 158.156 131.158 158.118 130.397C158.08 129.637 158.642 128.993 159.373 128.958C160.105 128.923 160.73 129.512 160.768 130.272" fill="#263238" fill-rule="nonzero" opacity="1" stroke="none" vectornator:layerName="path"/>
<path d="M154.509 129.513L154.719 137.5L158.923 136.198L154.509 129.513Z" fill="#874c4c" fill-rule="nonzero" opacity="1" stroke="none" vectornator:layerName="path"/>
<path d="M148.659 147.548C145.265 147.103 138.285 145.097 137.198 142.338C137.198 142.338 137.56 144.072 139.645 145.86C141.73 147.647 148.659 149.66 148.659 149.66L148.659 147.548Z" fill="#874c4c" fill-rule="nonzero" opacity="1" stroke="none" vectornator:layerName="path"/>
<path d="M181.478 224.661L175.118 221.274C169.045 218.039 161.806 212.551 161.806 204.768C161.806 199.318 166.223 193.534 171.673 191.847C176.687 190.296 180.828 194.501 181.457 199.151C182.086 194.113 186.228 187.344 191.242 185.792C196.691 184.107 201.109 187.158 201.109 192.607C201.109 200.399 193.89 210.355 187.834 217.335L181.478 224.661Z" fill="#f16a6b" fill-rule="nonzero" opacity="1" stroke="none" vectornator:layerName="path"/>
<path d="M111.51 212.32L122.258 201.447C122.258 201.447 149.388 207.494 152.452 207.736C155.517 207.976 157.943 205.215 160.089 202.804C161.11 201.656 162.232 201.759 162.232 201.759C161.946 202.628 161.813 203.864 161.961 204.766C162.419 206.051 169.173 207.418 173.246 206.039C177.32 204.659 183.216 206.662 179.563 212.208C175.91 217.756 168.808 218.395 163.873 218.399C162.509 218.4 160.086 218.296 157.704 217.986C156.107 217.778 154.519 217.618 152.913 217.503C142.815 216.783 116.1 213.761 111.51 212.32" fill="#9e6767" fill-rule="nonzero" opacity="1" stroke="none" vectornator:layerName="path"/>
<path d="M122.724 107.455C127.081 109.278 126.099 113.017 124.276 117.374C122.453 121.731 120.481 125.056 116.124 123.233C111.766 121.411 109.712 116.401 111.535 112.044C113.357 107.687 118.367 105.632 122.724 107.455" fill="#e5ba9d" fill-rule="nonzero" opacity="1" stroke="none" vectornator:layerName="path"/>
<path d="M126.56 111.35L128.085 104.074C126.051 103.577 124.06 104.803 123.639 106.813C123.218 108.822 124.525 110.853 126.56 111.35" fill="#e5ba9d" fill-rule="nonzero" opacity="1" stroke="none" vectornator:layerName="path"/>
</g>
</g>
</g>
</g>
</svg>
