<?xml version="1.0" encoding="UTF-8" standalone="no"?>
<!DOCTYPE svg PUBLIC "-//W3C//DTD SVG 1.1//EN" "http://www.w3.org/Graphics/SVG/1.1/DTD/svg11.dtd">
<!-- Created with Vectornator (http://vectornator.io/) -->
<svg height="100%" stroke-miterlimit="10" style="fill-rule:nonzero;clip-rule:evenodd;stroke-linecap:round;stroke-linejoin:round;" version="1.1" viewBox="0 0 500 500" width="100%" xml:space="preserve" xmlns="http://www.w3.org/2000/svg" xmlns:vectornator="http://vectornator.io" xmlns:xlink="http://www.w3.org/1999/xlink">
<defs/>
<g id="Untitled" vectornator:layerName="Untitled">
<g opacity="1" vectornator:layerName="Shadows">
<g opacity="1" vectornator:layerName="path">
<clipPath id="ClipPath">
<path d="M0 0L500 0L500 500L0 500L0 0Z"/>
</clipPath>
<g clip-path="url(#ClipPath)">
<path d="M450.863 424.097C469.907 435.092 469.907 452.918 450.863 463.913C431.819 474.909 400.943 474.909 381.899 463.913C362.855 452.919 362.855 435.092 381.899 424.097C400.943 413.102 431.819 413.102 450.863 424.097" fill="#ececec" fill-rule="nonzero" opacity="1" stroke="none" vectornator:layerName="path"/>
<path d="M137.574 248.475C155.684 258.931 155.684 275.883 137.574 286.339C119.464 296.795 90.1012 296.795 71.9912 286.339C53.8822 275.883 53.8822 258.931 71.9912 248.475C90.1022 238.019 119.464 238.019 137.574 248.475" fill="#ececec" fill-rule="nonzero" opacity="1" stroke="none" vectornator:layerName="path"/>
<path d="M210.744 291.09C228.854 301.546 228.854 318.498 210.744 328.954C192.634 339.41 163.271 339.41 145.161 328.954C127.052 318.498 127.052 301.546 145.162 291.09C163.272 280.634 192.634 280.634 210.744 291.09" fill="#ececec" fill-rule="nonzero" opacity="1" stroke="none" vectornator:layerName="path"/>
<path d="M284.845 334.398C302.954 344.854 302.954 361.806 284.844 372.262C266.735 382.718 237.372 382.718 219.262 372.262C201.152 361.807 201.152 344.854 219.262 334.398C237.372 323.942 266.735 323.942 284.845 334.398" fill="#ececec" fill-rule="nonzero" opacity="1" stroke="none" vectornator:layerName="path"/>
<path d="M360.178 377.26C378.287 387.716 378.287 404.668 360.178 415.124C342.068 425.58 312.705 425.58 294.595 415.124C276.486 404.668 276.486 387.716 294.595 377.26C312.705 366.804 342.068 366.804 360.178 377.26" fill="#ececec" fill-rule="nonzero" opacity="1" stroke="none" vectornator:layerName="path"/>
</g>
</g>
<g opacity="1" vectornator:layerName="path">
<clipPath id="ClipPath_2">
<path d="M0 0L500 0L500 500L0 500L0 0Z"/>
</clipPath>
<g clip-path="url(#ClipPath_2)">
<path d="M375.227 57.5884L384.165 62.7484C384.121 62.3494 384.089 61.9534 384.089 61.5654L384.089 58.9764C384.089 54.3684 387.325 52.5004 391.315 54.8044C392.931 55.7374 394.418 57.2154 395.622 58.9454C396.275 53.1514 400.821 50.9934 406.342 54.1804C412.313 57.6284 417.153 66.0104 417.153 72.9044L417.153 76.7774C417.153 78.5634 416.823 80.0674 416.238 81.2654L423.662 85.5524C425.875 86.8304 427.669 89.9384 427.669 92.4944C427.669 95.0504 425.875 96.0864 423.662 94.8084L375.227 66.8444C373.013 65.5664 371.218 62.4584 371.218 59.9024C371.218 57.3464 373.013 56.3104 375.227 57.5884" fill="#ececec" fill-rule="nonzero" opacity="1" stroke="none" vectornator:layerName="path"/>
<path d="M336.977 83.6309L343.722 87.5259C343.689 87.2239 343.665 86.9249 343.665 86.6319L343.665 84.6779C343.665 81.2009 346.107 79.7909 349.119 81.5299C350.338 82.2339 351.46 83.3499 352.369 84.6549C352.862 80.2819 356.293 78.6529 360.46 81.0589C364.965 83.6609 368.619 89.9869 368.619 95.1899L368.619 98.1129C368.619 99.4609 368.37 100.596 367.927 101.501L373.531 104.735C375.202 105.7 376.555 108.046 376.555 109.975C376.555 111.903 375.202 112.686 373.531 111.721L336.977 90.6169C335.306 89.6519 333.952 87.3059 333.952 85.3769C333.952 83.4479 335.306 82.6659 336.977 83.6309" fill="#ececec" fill-rule="nonzero" opacity="1" stroke="none" vectornator:layerName="path"/>
</g>
</g>
<g opacity="1" vectornator:layerName="path">
<clipPath id="ClipPath_3">
<path d="M0 0L500 0L500 500L0 500L0 0Z"/>
</clipPath>
<g clip-path="url(#ClipPath_3)">
<path d="M434.053 430.624C436.473 427.758 442.991 425.168 451.156 424.603C459.32 424.036 467.577 423.058 466.42 418.202C465.172 412.963 457.85 411.659 450.225 413.568C441.893 415.654 434.923 422.797 434.086 427.798L434.053 430.624Z" fill="#4a3728" fill-rule="nonzero" opacity="1" stroke="none" vectornator:layerName="path"/>
<path d="M434.158 428.875C434.369 428.906 434.59 428.817 434.718 428.628C442.584 416.971 456.913 416.979 461.242 418.301C461.542 418.395 461.867 418.223 461.96 417.918C462.053 417.615 461.882 417.293 461.578 417.2C457.036 415.808 441.994 415.788 433.763 427.984C433.586 428.248 433.655 428.605 433.919 428.783C433.993 428.833 434.075 428.863 434.158 428.875" fill="#ffffff" fill-rule="nonzero" opacity="1" stroke="none" vectornator:layerName="path"/>
<path d="M434.053 430.624C434.053 430.624 440.001 416.183 450.747 409.511C453.94 407.528 457.407 404.974 459.828 403.212C465.025 399.43 463.823 394.327 457.498 393.504C448.103 392.281 440.101 399.186 435.638 409.09C431.176 418.994 434.053 430.624 434.053 430.624" fill="#4a3728" fill-rule="nonzero" opacity="1" stroke="none" vectornator:layerName="path"/>
<path d="M434.145 423.752C434.429 423.793 434.703 423.612 434.772 423.327C439.023 405.637 454.004 398.598 457.864 398.183C458.172 398.149 458.395 397.873 458.362 397.564C458.33 397.255 458.052 397.03 457.744 397.065C453.056 397.569 438.032 404.95 433.678 423.065C433.606 423.366 433.791 423.67 434.094 423.743C434.111 423.746 434.128 423.75 434.145 423.752" fill="#ffffff" fill-rule="nonzero" opacity="1" stroke="none" vectornator:layerName="path"/>
</g>
</g>
<g opacity="1" vectornator:layerName="path">
<clipPath id="ClipPath_4">
<path d="M0 0L500 0L500 500L0 500L0 0Z"/>
</clipPath>
<g clip-path="url(#ClipPath_4)">
<path d="M437.127 257.995C441.922 256.862 445.029 260.9 448.116 268.429C451.204 275.958 456.707 294.299 457.991 299.329C458.565 301.583 444.298 321.754 444.909 321.455C445.098 321.363 439.338 311.728 439.338 311.728L446.341 298.329L441.355 286.145L437.127 257.995Z" fill="#ffaaa8" fill-rule="nonzero" opacity="1" stroke="none" vectornator:layerName="path"/>
<path d="M443.938 427.95C444.587 428.196 444.752 429.434 444.849 431.894C444.925 433.757 445.324 437.007 443.142 437.656C440.962 438.305 437.767 437.973 436.368 436.218C434.625 434.028 433.445 432.099 430.956 429.427C428.794 427.108 426.459 424.944 425.587 421.692C424.8 418.754 425.457 417.479 427.459 416.625C430.216 415.45 434.548 419.288 436.709 419.893C438.568 420.413 443.288 427.704 443.938 427.95" fill="#4a3728" fill-rule="nonzero" opacity="1" stroke="none" vectornator:layerName="path"/>
<path d="M443.938 423.969L443.938 428.693C443.938 428.693 440.796 431.107 436.303 428.899C436.171 428.608 435.788 423.969 435.788 423.969L443.938 423.969Z" fill="#ffaaa8" fill-rule="nonzero" opacity="1" stroke="none" vectornator:layerName="path"/>
<path d="M421.456 444.005C421.456 444.005 422.323 446.633 422.79 448.93C423.161 450.757 423.693 453.81 423.054 455.184C422.414 456.558 419.919 457.444 416.051 457.415C413.545 457.396 409.641 459.097 406.968 460.589C404.207 462.13 401.211 462.135 398.291 461.792C394.85 461.388 391.284 459.392 390.727 457.967C390.171 456.542 390.887 455.857 398.997 452.401C399.071 452.369 407.55 448.54 411.474 444.21L421.456 444.005Z" fill="#4a3728" fill-rule="nonzero" opacity="1" stroke="none" vectornator:layerName="path"/>
<path d="M421.456 440.739C421.456 440.739 421.444 442.981 421.456 444.262C421.467 445.544 419.954 447.453 416.037 447.313C413.285 447.215 411.365 446.475 411.474 444.21L411.474 440.944L421.456 440.739Z" fill="#ffaaa8" fill-rule="nonzero" opacity="1" stroke="none" vectornator:layerName="path"/>
<path d="M449.033 389.09C448.778 379.125 446.728 374.753 446.728 374.753C446.728 374.753 447.491 362.444 449.147 347.375C451.668 324.433 450.508 319.986 445.982 309.664C445.982 309.664 407.364 305.751 406.186 321.799C404.719 341.786 404.545 377.229 405.075 384.289C405.605 391.35 405.598 390.036 407.313 404.328C408.67 415.632 411.473 440.943 411.473 440.943C416.598 443.714 421.456 440.738 421.456 440.738C421.456 440.738 424.613 408.602 424.282 400.456C423.877 390.508 423.313 387.976 423.313 387.976C423.313 387.976 427.829 358.586 428.527 353.401C428.527 353.401 429.156 362.68 429.686 369.741C430.217 376.801 430.173 379.675 431.66 394.279C432.827 405.734 435.653 425.255 435.653 425.255C440.22 427.183 444.075 424.635 444.075 424.635C444.075 424.635 449.239 397.153 449.033 389.09" fill="#fadcc5" fill-rule="nonzero" opacity="1" stroke="none" vectornator:layerName="path"/>
<path d="M417.348 252.799L419.162 267.721L432.282 266.536L430.783 249.973L417.348 252.799Z" fill="#ffaaa8" fill-rule="nonzero" opacity="1" stroke="none" vectornator:layerName="path"/>
<path d="M445.077 265.213C443.635 261.287 440.331 257.175 435.287 258.112C433.973 258.356 432.818 258.548 431.581 258.796C431.467 262.234 424.99 264.014 418.532 261.928C416.591 262.485 414.814 263.051 413.2 263.628C408.583 265.277 406.726 272.948 406.625 285.78C406.523 298.612 405.157 330.618 405.157 330.618L410.556 332.316L413.079 322.954L414.095 334.168C419.939 335.64 426.074 335.534 432.739 334.078C446.615 331.046 450.934 323.559 450.934 323.559C450.934 323.559 448.074 310.673 439.885 298.031C446.84 279.531 447.217 271.038 445.077 265.213" fill="#644b37" fill-rule="nonzero" opacity="1" stroke="none" vectornator:layerName="path"/>
<path d="M407.6 233.843C407.6 233.843 404.85 228.62 408.587 222.751C412.993 215.835 421.483 214.656 431.544 217.354C436.531 218.691 443.505 223.99 444.13 233.557C444.613 240.935 424.035 246.378 424.504 251.432L407.6 233.843Z" fill="#182e35" fill-rule="nonzero" opacity="1" stroke="none" vectornator:layerName="path"/>
<path d="M407.156 236.646C407.156 236.646 404.364 241.124 404.757 241.579C405.149 242.034 407.012 242.48 407.012 242.48L407.156 236.646Z" fill="#ff9090" fill-rule="nonzero" opacity="1" stroke="none" vectornator:layerName="path"/>
<path d="M415.674 222.465C412.884 224.003 408.068 226.836 407.091 237.291C406.089 248.024 408.57 251.677 410.067 253.04C411.077 253.96 416.166 254.166 418.793 253.272C422.081 252.153 429.168 248.41 432.387 242.798C436.173 236.195 436.758 227.515 432.094 224.244C425.53 219.64 418.035 221.163 415.674 222.465" fill="#ffaaa8" fill-rule="nonzero" opacity="1" stroke="none" vectornator:layerName="path"/>
<path d="M415.66 223.728C414.961 225.71 413.004 230.381 412.697 236.051C412.697 236.051 410.14 236.051 408.925 235.435C408.925 235.435 408.868 230.939 410.076 228.38C410.076 228.38 408.397 231.074 407.877 235.058C407.877 235.058 405.612 234.89 404.304 233.724C403.331 228.912 406.34 218.989 414.849 217.414L415.66 223.728Z" fill="#182e35" fill-rule="nonzero" opacity="1" stroke="none" vectornator:layerName="path"/>
<path d="M414.85 222.934C414.85 222.934 412.648 232.76 415.768 238.849C415.768 238.849 417.395 234.993 420.699 235.997C424.024 237.009 423.84 241.411 421.308 243.727C418.774 246.043 416.227 244.95 416.227 244.95C416.227 244.95 417.738 249.09 421.135 252.36C421.135 252.36 430.914 256.72 439.382 247.163C447.066 238.49 445.637 223.363 433.87 219.795C422.103 216.228 414.85 222.934 414.85 222.934" fill="#182e35" fill-rule="nonzero" opacity="1" stroke="none" vectornator:layerName="path"/>
<path d="M447.405 245.079C449.726 247.537 449.287 251.722 446.424 254.424C443.56 257.127 439.358 257.325 437.038 254.867C434.717 252.409 435.156 248.225 438.019 245.522C440.883 242.819 445.085 242.621 447.405 245.079" fill="#182e35" fill-rule="nonzero" opacity="1" stroke="none" vectornator:layerName="path"/>
<path d="M443.39 240.784C442.178 241.174 441.511 242.472 441.901 243.685L446.291 242.274C445.902 241.062 444.603 240.394 443.39 240.784" fill="#182e35" fill-rule="nonzero" opacity="1" stroke="none" vectornator:layerName="path"/>
<path d="M379.997 287.265C378.094 285.089 377.777 280.285 375.239 276.978C372.761 273.749 373.164 270.34 371.572 271.823C369.869 273.409 371.169 278.726 371.169 278.726C371.169 278.726 368.215 284.207 367.965 287.013C367.714 289.818 375.138 296.863 375.138 296.863L379.997 287.265Z" fill="#ffaaa8" fill-rule="nonzero" opacity="1" stroke="none" vectornator:layerName="path"/>
<path d="M371.572 278.35C371.572 278.35 368.565 282.553 355.025 277.064C351.285 275.548 353.809 283.587 358.395 286.918C362.64 290.001 367.954 290.955 372.203 293.832C372.213 293.423 371.572 278.35 371.572 278.35" fill="#ffaaa8" fill-rule="nonzero" opacity="1" stroke="none" vectornator:layerName="path"/>
<path d="M414.348 263.232C410.492 264.575 407.116 266.128 403.516 272.892C398.891 281.585 390.479 298.612 390.479 298.612L379.997 287.265C379.997 287.265 378.472 285.115 375.635 289.803C372.797 294.491 374.051 295.788 374.051 295.788C374.051 295.788 386.246 312.123 388.486 314.202C390.724 316.281 394.402 314.665 396.8 311.395C399.199 308.126 411.61 285.65 411.61 285.65C411.61 285.65 419.799 271.45 414.348 263.232" fill="#ffaaa8" fill-rule="nonzero" opacity="1" stroke="none" vectornator:layerName="path"/>
<g opacity="0.199997" vectornator:layerName="path">
<clipPath id="ClipPath_5">
<path d="M428.527 369.741L441.039 369.741L441.039 341.138L428.527 341.138L428.527 369.741Z"/>
</clipPath>
<g clip-path="url(#ClipPath_5)">
<path d="M428.527 353.401L429.258 345.595C429.258 345.595 434.927 345.047 441.039 341.138C441.039 341.138 438.532 345.157 431.646 346.988L430.092 354.593L429.686 369.741L428.527 353.401Z" fill="#000000" fill-rule="nonzero" opacity="1" stroke="none" vectornator:layerName="path"/>
</g>
</g>
<path d="M406.453 294.638C406.453 294.638 411.303 286.153 411.609 285.65L406.061 307.181L406.453 294.638Z" fill="#4a3728" fill-rule="nonzero" opacity="1" stroke="none" vectornator:layerName="path"/>
</g>
</g>
<g opacity="1" vectornator:layerName="path">
<clipPath id="ClipPath_6">
<path d="M0 0L500 0L500 500L0 500L0 0Z"/>
</clipPath>
<g clip-path="url(#ClipPath_6)">
<path d="M348.897 243.712C350.317 245.197 353.69 246.348 375.512 247.938C378.698 248.17 381.861 247.912 384.879 246.71C387.796 245.548 390.383 243.53 392.14 240.92C392.537 240.33 392.898 239.701 393.059 239.01C393.219 238.318 393.161 237.549 392.766 236.959C392.376 236.374 391.709 236.029 391.031 235.842C389.599 235.446 388.281 235.763 386.936 236.281C384.917 237.059 383.382 237.33 383.532 236.923C383.681 236.516 384.9 236.141 386.153 234.729C387.349 233.38 387.72 231.344 386.911 230.732C386.101 230.12 386.243 230.252 384.796 231.447C383.349 232.643 381.697 233.255 379.794 235.101C378.119 236.726 377.399 237.367 375.378 238.169C373.186 239.038 371.122 238.78 365.04 237.808C359.787 236.968 357.774 236.67 355.251 235.267C352.54 231.146 346.003 213.744 343.163 208.97C340.159 203.923 334.059 203.767 334.059 203.767C334.059 203.767 333.898 212.825 337.139 222.05C339.24 228.028 347.488 242.237 348.897 243.712" fill="#c76668" fill-rule="nonzero" opacity="1" stroke="none" vectornator:layerName="path"/>
<path d="M332.406 203.254C332.406 203.254 336.416 202.459 339.721 204.542C343.028 206.624 345.185 210.475 347.284 215.291C349.839 221.153 352.922 228.985 352.922 228.985C352.922 228.985 349.087 233.26 341.919 233.968L332.067 217.605L332.406 203.254Z" fill="#644b37" fill-rule="nonzero" opacity="1" stroke="none" vectornator:layerName="path"/>
<path d="M309.122 391.028L317.622 391.028L317.622 376.478L309.122 376.478L309.122 391.028Z" fill="#c76668" fill-rule="nonzero" opacity="1" stroke="none" vectornator:layerName="path"/>
<path d="M332.642 380.141L341.137 380.433L341.562 365.035L332.642 364.743L332.642 380.141Z" fill="#c76668" fill-rule="nonzero" opacity="1" stroke="none" vectornator:layerName="path"/>
<path d="M305.502 267.83C305.502 275.946 306.937 323.156 306.937 323.156C306.738 325.492 304.49 329.644 304.315 338.057C304.062 350.256 308.759 383.753 308.759 383.753C308.759 383.753 312.885 386.164 318.222 383.94C318.222 383.94 322.077 338.533 323.601 326.458C324.93 315.919 327.185 287.289 327.185 287.289L331.187 321.694C331.187 321.694 329.619 327.979 330.133 335.202C330.53 340.787 332.104 375.372 332.104 375.372C332.104 375.372 336.105 378.087 341.918 376.123C341.918 376.123 347.912 326.818 348.011 321.694C348.123 315.851 345.789 256.21 345.789 256.21L305.502 267.83Z" fill="#644b37" fill-rule="nonzero" opacity="1" stroke="none" vectornator:layerName="path"/>
<path d="M311.086 208.121C309.217 208.956 307.74 210.479 306.99 212.384C306.322 214.081 305.745 216.486 305.745 219.73L305.745 236.383L305.502 267.829C317.701 274.26 333.211 274.69 346.226 265.185C346.226 265.185 345.499 224.708 345.499 218.088C345.499 217.788 345.492 217.485 345.477 217.179C345.003 207.722 335.692 201.232 326.523 203.591L318.819 205.573L311.086 208.121Z" fill="#f0f0f0" fill-rule="nonzero" opacity="1" stroke="none" vectornator:layerName="path"/>
<path d="M321.228 177.146C321.228 183.597 326.458 188.827 332.91 188.827C339.361 188.827 344.59 183.597 344.59 177.146C344.59 170.695 339.361 165.465 332.91 165.465C326.458 165.465 321.228 170.695 321.228 177.146" fill="#182e35" fill-rule="nonzero" opacity="1" stroke="none" vectornator:layerName="path"/>
<path d="M312.718 185.451C312.718 185.451 314.611 194.344 315.37 195.805C316.129 197.266 317.697 197.682 317.697 197.682L317.566 191.426L312.718 185.451Z" fill="#182e35" fill-rule="nonzero" opacity="1" stroke="none" vectornator:layerName="path"/>
<path d="M315.094 172.711C315.094 172.711 313.055 172.362 311.466 173.987C309.908 175.58 310.779 180.567 312.718 185.451L316.283 185.86L315.094 172.711Z" fill="#182e35" fill-rule="nonzero" opacity="1" stroke="none" vectornator:layerName="path"/>
<path d="M317.353 185.863C316.638 186.29 315.619 184.917 314.737 183.994C313.855 183.071 310.977 181.811 309.541 184.836C308.078 187.92 310.808 191.993 313.075 192.704C316.979 193.93 317.566 191.425 317.566 191.425L317.854 205.942C322.709 212.167 336.183 211.641 330.569 205.139L330.558 200.852C330.558 200.852 334.096 201.389 335.823 201.122C338.694 200.678 340.501 198.412 341.373 195.304C342.772 190.311 343.303 186.279 342.116 176.459C340.815 165.696 328.295 165.584 321.536 169.839C314.776 174.094 317.353 185.863 317.353 185.863" fill="#c76668" fill-rule="nonzero" opacity="1" stroke="none" vectornator:layerName="path"/>
<path d="M317.353 187.066C316.994 187.073 315.626 184.804 314.737 183.994C313.503 182.872 315.094 172.711 315.094 172.711C315.094 172.711 313.91 170.186 316.284 167.572C317.973 165.712 319.811 164.538 324.683 164.278C327.536 164.126 332.097 164.573 334.66 164.747C339.469 165.072 341.246 163.887 344.007 163.112C346.121 162.519 346.361 170.152 341.022 172.68C341.022 172.68 339.284 173.801 334.709 174.358C330.134 174.915 323.009 174.251 322.036 174.118C320.708 173.936 320.425 175.222 319.71 178.734C319.082 181.817 318.562 187.043 317.353 187.066" fill="#182e35" fill-rule="nonzero" opacity="1" stroke="none" vectornator:layerName="path"/>
<path d="M315.101 173.501L310.779 171.181C311.392 169.942 312.857 169.458 314.05 170.098C315.245 170.739 315.714 172.263 315.101 173.501" fill="#182e35" fill-rule="nonzero" opacity="1" stroke="none" vectornator:layerName="path"/>
<path d="M330.558 200.852C330.558 200.852 324.148 199.561 321.906 198.369C320.406 197.572 319.17 196.19 318.808 195.304C318.808 195.304 319.228 197.206 320.568 198.919C322.207 201.015 330.558 202.558 330.558 202.558L330.558 200.852Z" fill="#b0484c" fill-rule="nonzero" opacity="1" stroke="none" vectornator:layerName="path"/>
<path d="M330.244 184.26C330.244 184.997 329.669 185.593 328.96 185.592C328.25 185.59 327.675 184.99 327.675 184.253C327.675 183.516 328.25 182.92 328.96 182.922C329.669 182.924 330.244 183.523 330.244 184.26" fill="#182e35" fill-rule="nonzero" opacity="1" stroke="none" vectornator:layerName="path"/>
<path d="M328.882 179.41L326.134 180.927C325.729 180.137 326.016 179.158 326.775 178.739C327.533 178.32 328.477 178.62 328.882 179.41" fill="#182e35" fill-rule="nonzero" opacity="1" stroke="none" vectornator:layerName="path"/>
<path d="M329.978 193.135L332.911 194.236C332.621 195.076 331.728 195.511 330.918 195.207C330.108 194.904 329.687 193.976 329.978 193.135" fill="#b0484c" fill-rule="nonzero" opacity="1" stroke="none" vectornator:layerName="path"/>
<path d="M341.328 180.479L338.822 178.549C339.333 177.831 340.308 177.682 341 178.215C341.692 178.748 341.839 179.762 341.328 180.479" fill="#182e35" fill-rule="nonzero" opacity="1" stroke="none" vectornator:layerName="path"/>
<path d="M340.557 183.895C340.557 184.632 339.982 185.228 339.272 185.226C338.563 185.224 337.988 184.625 337.988 183.888C337.988 183.151 338.563 182.555 339.272 182.557C339.982 182.559 340.557 183.158 340.557 183.895" fill="#182e35" fill-rule="nonzero" opacity="1" stroke="none" vectornator:layerName="path"/>
<path d="M334.011 182.676L334.433 190.402L338.467 189.027L334.011 182.676Z" fill="#b0484c" fill-rule="nonzero" opacity="1" stroke="none" vectornator:layerName="path"/>
<path d="M317.622 386.832L317.622 385.617C318.434 385.971 320.324 393.18 323.696 396.256C326.378 398.702 330.035 401.526 330.965 404.252C331.933 407.087 325.872 408.653 323.367 408.209C320.457 407.694 315.413 405.644 314.146 403.745C312.88 401.846 312.287 399.043 311.258 397.65C310.229 396.258 307.857 394.704 307.301 393.093C306.995 392.207 307.358 390.269 307.788 388.631C308.182 387.128 308.609 385.476 309.122 385.617C309.123 385.8 309.122 386.543 309.122 386.543C309.739 387.227 311.446 387.906 313.371 387.979C314.615 388.027 317.632 387.781 317.622 386.832" fill="#4a3728" fill-rule="nonzero" opacity="1" stroke="none" vectornator:layerName="path"/>
<path d="M341.227 377.812C341.668 377.829 342.028 378.45 343.001 379.503C344.178 380.777 346.102 382.151 348.001 383.101C351.184 384.695 357.372 387.146 360.171 388.408C361.921 389.195 361.839 391.308 360.031 392.512C358.222 393.714 353.856 394.581 348.614 393.408C345.758 392.769 342.04 390.132 339.687 390.274C337.333 390.416 332.93 390.382 331.194 389.185C329.456 387.988 330.152 385.43 330.643 383.233C331.178 380.836 331.848 377.096 332.642 377.26L332.642 378.087C333.665 379.634 338.937 380.264 341.182 379.125L341.227 377.812Z" fill="#4a3728" fill-rule="nonzero" opacity="1" stroke="none" vectornator:layerName="path"/>
<path d="M327.185 287.289C327.185 287.289 333.978 285.375 339.021 280.502C339.021 280.502 336.737 284.779 329.945 288.758L330.851 318.801L327.185 287.289Z" fill="#4a3728" fill-rule="nonzero" opacity="1" stroke="none" vectornator:layerName="path"/>
<path d="M291.663 250.369C297.114 218.47 302.697 208.773 311.828 208.439C314.649 211.492 314.392 221.147 310.471 227.193C310.471 227.193 302.067 247.464 300.919 254.578C299.91 260.829 298.806 268.684 299.164 273.996C299.227 274.937 299.661 275.813 300.333 276.474C302.14 278.246 302.221 279.743 303.434 281.743C304.383 283.308 305.364 283.862 305.11 284.238C304.785 284.72 303.715 285.382 302.303 284.586C301.593 284.185 301.12 283.698 300.065 282.643C300.065 282.643 300.462 285.12 302.042 288.256C304.184 292.505 303.825 294.744 297.884 293.488C294.16 292.701 291.701 289.755 290.713 280.949C290.428 278.412 289.988 274.41 290.13 271.178C290.499 262.762 290.805 255.391 291.663 250.369" fill="#c76668" fill-rule="nonzero" opacity="1" stroke="none" vectornator:layerName="path"/>
<path d="M314.059 207.142C311.278 207.647 304.146 207.903 300.495 215.268C298.089 220.121 295.674 227.717 293.081 236.818C293.081 236.818 298.435 242.361 306.323 241.568L310.737 228.827C314.929 223.41 315.966 211.22 314.059 207.142" fill="#644b37" fill-rule="nonzero" opacity="1" stroke="none" vectornator:layerName="path"/>
</g>
</g>
<g opacity="1" vectornator:layerName="path">
<clipPath id="ClipPath_7">
<path d="M0 0L500 0L500 500L0 500L0 0Z"/>
</clipPath>
<g clip-path="url(#ClipPath_7)">
<path d="M263.436 205.043C255.669 173.752 246.79 166.487 255.086 162.271C263.621 161.439 268.017 166.478 269.503 175.464C270.231 179.858 271.81 197.904 273.793 204.972C275.536 211.182 277.876 218.915 280.482 223.672C280.943 224.515 281.718 225.139 282.623 225.462C285.05 226.328 285.766 227.676 287.743 229.005C289.29 230.046 290.434 230.139 290.361 230.594C290.266 231.179 289.56 232.249 287.915 232.117C287.086 232.051 286.441 231.803 285.015 231.279C285.015 231.279 286.441 233.399 289.244 235.621C293.042 238.632 293.669 240.856 287.639 242.237C283.861 243.104 280.327 241.432 275.645 233.716C274.295 231.493 272.177 227.982 270.924 224.934C267.664 216.997 264.686 210.08 263.436 205.043" fill="#ffaaa8" fill-rule="nonzero" opacity="1" stroke="none" vectornator:layerName="path"/>
<path d="M236.63 344.55L236.63 343.336C237.109 344.76 239.33 350.891 242.698 353.963C245.377 356.406 249.03 359.227 249.959 361.95C250.925 364.782 244.875 365.734 242.373 365.291C239.466 364.776 235.705 363.127 233.658 360.612C232.218 358.843 231.302 356.747 230.274 355.356C229.246 353.966 226.877 352.413 226.321 350.803C226.016 349.919 226.379 347.983 226.807 346.346C227.201 344.845 227.628 343.195 228.14 343.336C228.141 343.519 228.14 344.261 228.14 344.261C228.756 344.944 230.462 345.622 232.384 345.696C233.627 345.744 236.64 345.497 236.63 344.55" fill="#4a3728" fill-rule="nonzero" opacity="1" stroke="none" vectornator:layerName="path"/>
<path d="M245.123 356.112C244.292 355.371 243.456 354.647 242.699 353.955C240.345 351.808 238.551 348.167 237.521 345.683C236.933 344.265 236.63 342.751 236.63 341.216L236.63 336.377L228.14 336.377L228.14 344.253L228.14 344.254L228.14 344.464L228.183 344.486C228.591 346.25 232.487 350.943 234.701 354.003C236.185 356.054 239.004 358.664 242.373 359.113C245.566 359.54 247.198 358.533 245.123 356.112" fill="#ffaaa8" fill-rule="nonzero" opacity="1" stroke="none" vectornator:layerName="path"/>
<path d="M269.746 336.18L269.746 334.966C270.225 336.39 272.446 342.521 275.814 345.594C278.492 348.036 282.145 350.858 283.075 353.58C284.041 356.413 277.991 357.364 275.489 356.921C272.582 356.407 268.821 354.757 266.773 352.242C265.334 350.473 264.418 348.377 263.39 346.987C262.362 345.596 259.993 344.043 259.437 342.434C259.132 341.55 259.494 339.613 259.924 337.977C260.317 336.476 260.743 334.825 261.256 334.966C261.258 335.149 261.256 335.891 261.256 335.891C261.872 336.575 263.578 337.253 265.501 337.326C266.743 337.374 269.757 337.128 269.746 336.18" fill="#4a3728" fill-rule="nonzero" opacity="1" stroke="none" vectornator:layerName="path"/>
<path d="M278.238 347.743C277.408 347.001 276.572 346.277 275.814 345.586C273.461 343.439 271.667 339.798 270.636 337.314C270.048 335.896 269.746 334.382 269.746 332.847L269.746 328.008L261.256 328.008L261.256 335.884L261.256 335.885L261.256 336.095L261.299 336.117C261.707 337.881 265.603 342.574 267.817 345.634C269.3 347.685 272.12 350.295 275.489 350.744C278.681 351.171 280.313 350.164 278.238 347.743" fill="#ffaaa8" fill-rule="nonzero" opacity="1" stroke="none" vectornator:layerName="path"/>
<path d="M229.83 212.606C223.248 226.981 230.067 277.622 230.067 277.622C229.87 279.955 227.203 284.545 226.208 294.813C225.035 306.944 228.051 337.405 228.051 337.405C228.051 337.405 231.981 339.976 236.631 337.747C236.631 337.747 244.722 291.869 246.244 279.807C247.571 269.28 250.12 246.134 250.12 246.134L257.364 279.75C257.364 279.75 255.504 285.647 255.069 290.14C254.382 297.235 261.256 330.268 261.256 330.268C261.256 330.268 264.186 331.343 269.747 330.524C269.747 330.524 272.178 286.687 272.819 278.14C273.895 263.786 270.083 218.999 267.45 210.502L229.83 212.606Z" fill="#ffd2c8" fill-rule="nonzero" opacity="1" stroke="none" vectornator:layerName="path"/>
<g opacity="0.100006" vectornator:layerName="path">
<clipPath id="ClipPath_8">
<path d="M250.12 275.564L265.397 275.564L265.397 227.055L250.12 227.055L250.12 275.564Z"/>
</clipPath>
<g clip-path="url(#ClipPath_8)">
<path d="M250.12 246.134L252.257 232.782C252.257 232.782 261.297 230.909 265.398 227.055C265.398 227.055 261.096 232.405 254.706 234.158L252.307 244.438L256.502 275.564L250.12 246.134Z" fill="#000000" fill-rule="nonzero" opacity="1" stroke="none" vectornator:layerName="path"/>
</g>
</g>
<path d="M241.439 162.663L241.439 162.663C233.001 163.244 232.409 167.319 230.297 171.776C228.69 175.169 228.672 179.103 229.898 182.652L235.779 199.663C235.779 199.663 231.948 206.09 229.829 212.606C244.586 220.842 263.012 216.513 267.45 210.502C267.637 209.227 266.497 199.261 265.794 192.75C268.393 186.231 269.08 182.098 267.983 177.788C265.948 169.789 258.045 161.995 254.549 162.279L241.439 162.663Z" fill="#f5f5f5" fill-rule="nonzero" opacity="1" stroke="none" vectornator:layerName="path"/>
<path d="M251.474 154.915L245.249 154.941C236.581 154.978 229.523 147.981 229.487 139.312C229.442 128.925 237.827 120.468 248.214 120.424C258.602 120.379 267.059 128.764 267.103 139.152C267.14 147.82 260.142 154.878 251.474 154.915" fill="#182e35" fill-rule="nonzero" opacity="1" stroke="none" vectornator:layerName="path"/>
<path d="M243.341 116.003C246.027 119.957 243.177 122.659 239.223 125.345C235.269 128.03 231.707 129.684 229.021 125.729C226.336 121.775 227.813 117.362 231.767 114.676C235.722 111.991 240.655 112.049 243.341 116.003" fill="#182e35" fill-rule="nonzero" opacity="1" stroke="none" vectornator:layerName="path"/>
<path d="M233.662 128.236L229.682 131.179C228.816 130.086 229.006 128.54 230.105 127.728C231.204 126.915 232.797 127.142 233.662 128.236" fill="#182e35" fill-rule="nonzero" opacity="1" stroke="none" vectornator:layerName="path"/>
<path d="M259.841 128.799C261.832 129.965 264.309 134.951 264.112 145.426C263.944 154.305 261.075 156.511 259.633 157.149C258.191 157.787 255.403 157.415 252.692 156.975L252.846 162.367C252.846 162.367 257.414 166.105 257.189 168.549C256.964 170.994 250.858 172.124 247.344 169.752C244.285 167.687 241.651 164.969 241.021 164.301C240.926 164.2 240.879 164.072 240.879 163.934L240.868 150.489C240.868 150.489 239.28 152.045 236.567 149.693C234.326 147.751 233.561 144.463 235.292 142.69C237.024 140.917 240.241 141.384 241.484 143.897C241.484 143.897 245.805 144.036 251.545 140.851C257.285 137.665 259.473 132.243 259.841 128.799" fill="#ffaaa8" fill-rule="nonzero" opacity="1" stroke="none" vectornator:layerName="path"/>
<path d="M254.189 143.239C254.224 143.879 253.753 144.423 253.137 144.455C252.522 144.487 251.995 143.994 251.96 143.354C251.925 142.715 252.395 142.171 253.011 142.139C253.627 142.107 254.154 142.6 254.189 143.239" fill="#182e35" fill-rule="nonzero" opacity="1" stroke="none" vectornator:layerName="path"/>
<path d="M254.52 150.763L257.117 151.579C256.905 152.322 256.152 152.742 255.434 152.516C254.717 152.291 254.308 151.506 254.52 150.763" fill="#ff9090" fill-rule="nonzero" opacity="1" stroke="none" vectornator:layerName="path"/>
<path d="M263.328 139.772L261.063 138.216C261.473 137.569 262.311 137.393 262.937 137.823C263.562 138.252 263.738 139.126 263.328 139.772" fill="#182e35" fill-rule="nonzero" opacity="1" stroke="none" vectornator:layerName="path"/>
<path d="M262.819 142.395C262.853 143.035 262.382 143.579 261.767 143.611C261.151 143.643 260.624 143.15 260.59 142.51C260.554 141.871 261.025 141.327 261.64 141.294C262.257 141.263 262.784 141.755 262.819 142.395" fill="#182e35" fill-rule="nonzero" opacity="1" stroke="none" vectornator:layerName="path"/>
<path d="M257.791 141.223L257.756 148.498L261.288 147.388L257.791 141.223Z" fill="#ff9090" fill-rule="nonzero" opacity="1" stroke="none" vectornator:layerName="path"/>
<path d="M252.691 156.975C249.835 156.613 243.954 154.95 243.028 152.632C243.028 152.632 243.339 154.09 245.1 155.587C246.861 157.083 252.743 158.772 252.743 158.772L252.691 156.975Z" fill="#ff9090" fill-rule="nonzero" opacity="1" stroke="none" vectornator:layerName="path"/>
<path d="M245.214 214.202C240.367 213.055 237.292 208.151 238.572 203.338C238.621 203.155 238.671 202.998 238.723 202.873C239.672 200.592 241.711 200.892 241.711 200.892C239.798 199.624 238.897 197.452 238.449 195.202L236.228 184.733C236.228 184.733 235.828 182.376 236.683 179.561L230.752 172.701C230.752 172.701 230.326 172.997 229.656 173.463C228.732 176.434 228.871 179.677 229.899 182.652L235.779 199.663C235.779 199.663 232.148 205.543 229.83 212.606C240.705 218.676 253.567 217.918 261.36 214.695C255.204 215.65 249.501 215.217 245.214 214.202" fill="#e1e1e1" fill-rule="nonzero" opacity="1" stroke="none" vectornator:layerName="path"/>
<path d="M241.989 239.301L220.54 227.037C220.54 227.037 210.1 241.383 217.208 245.432C224.315 249.482 231.368 253.608 238.449 257.696C246.466 254.559 241.989 239.301 241.989 239.301" fill="#4a3728" fill-rule="nonzero" opacity="1" stroke="none" vectornator:layerName="path"/>
<path d="M238.449 241.345L221.655 231.631L221.655 232.558L238.449 242.367L238.449 241.345Z" fill="#fadcc5" fill-rule="nonzero" opacity="1" stroke="none" vectornator:layerName="path"/>
<path d="M241.989 239.301C240.606 243.805 236.458 256.547 238.449 257.696C240.44 258.845 246.589 254.889 246.464 252.504C246.112 245.769 241.989 239.301 241.989 239.301" fill="#644b37" fill-rule="nonzero" opacity="1" stroke="none" vectornator:layerName="path"/>
<path d="M236.066 162.621C236.066 162.621 238.734 162.138 240.298 165.109C243.729 171.629 241.371 238.948 241.371 238.948L239.051 237.621C239.051 237.621 239.857 215.915 239.78 196.161C239.724 181.654 239.183 167.948 238.558 166.457C237.234 163.304 234.343 163.787 234.343 163.787C234.684 163.171 235.277 162.801 236.066 162.621" fill="#4a3728" fill-rule="nonzero" opacity="1" stroke="none" vectornator:layerName="path"/>
<path d="M214.726 205.009C221.287 178.191 226.384 166.679 233.558 164.002C235.886 163.133 238.39 164.568 238.77 167.024C239.451 171.431 238.216 177.966 235.032 182.381C235.032 182.381 225.458 202.578 223.931 209.759C222.594 216.042 221.08 223.94 221.164 229.361C221.179 230.335 221.559 231.28 222.22 231.995C223.977 233.894 223.982 235.422 225.117 237.521C226.004 239.162 226.974 239.776 226.697 240.144C226.342 240.619 225.219 241.238 223.823 240.357C223.121 239.913 222.664 239.393 221.645 238.267C221.645 238.267 221.923 240.808 223.372 244.077C225.337 248.508 224.859 250.769 218.878 249.191C215.13 248.202 212.776 245.08 212.215 236.072C212.054 233.477 211.809 229.383 212.116 226.101C212.916 217.558 213.493 210.05 214.726 205.009" fill="#ffaaa8" fill-rule="nonzero" opacity="1" stroke="none" vectornator:layerName="path"/>
</g>
</g>
<g opacity="1" vectornator:layerName="path">
<clipPath id="ClipPath_9">
<path d="M0 0L500 0L500 500L0 500L0 0Z"/>
</clipPath>
<g clip-path="url(#ClipPath_9)">
<path d="M210.34 166.977C210.939 161.12 210.939 158.639 210.759 157.909C209.942 154.585 207.621 151.922 205.184 147.888C200.991 140.947 194.681 130.184 191.774 126.043C189.471 122.764 186.991 120.84 183.204 121.05C180.556 121.196 182.607 131.651 185.21 139.182L199.16 158.428C199.617 159.059 199.827 159.835 199.751 160.61L198.393 174.329L202.84 180.278C202.84 180.278 209.574 174.472 210.34 166.977" fill="#ffaaa8" fill-rule="nonzero" opacity="1" stroke="none" vectornator:layerName="path"/>
<path d="M210.421 166.164C210.222 165.119 209.52 164.267 207.685 164.338C205.864 164.408 204.43 166.766 204.43 166.766L209.59 169.059C209.861 168.376 210.119 167.685 210.34 166.977L210.34 166.976C210.369 166.696 210.395 166.43 210.421 166.164" fill="#ff9090" fill-rule="nonzero" opacity="1" stroke="none" vectornator:layerName="path"/>
<path d="M181.67 120.903C181.67 120.903 187.397 120.177 190.581 123.635C193.765 127.093 195.311 129.987 198.393 135.1C202.105 141.256 203.71 144.423 203.71 144.423C203.71 144.423 197.907 152.169 189.356 151.161L181.67 120.903Z" fill="#4a3728" fill-rule="nonzero" opacity="1" stroke="none" vectornator:layerName="path"/>
<path d="M171.356 94.0107C171.356 100.554 176.661 105.859 183.204 105.859C189.747 105.859 195.052 100.554 195.052 94.0107C195.052 87.4677 189.747 82.1627 183.204 82.1627C176.661 82.1627 171.356 87.4677 171.356 94.0107" fill="#182e35" fill-rule="nonzero" opacity="1" stroke="none" vectornator:layerName="path"/>
<path d="M154.832 308.771L163.178 308.771L163.178 294.484L154.832 294.484L154.832 308.771Z" fill="#ffaaa8" fill-rule="nonzero" opacity="1" stroke="none" vectornator:layerName="path"/>
<path d="M183.767 298.775L192.108 299.062L192.525 283.942L184.185 283.656L183.767 298.775Z" fill="#ffaaa8" fill-rule="nonzero" opacity="1" stroke="none" vectornator:layerName="path"/>
<path d="M155.38 181.234C155.38 189.203 154.35 237.497 154.35 237.497C154.155 239.79 152.005 244.018 152.47 252.825C153.103 264.79 154.136 295.893 154.136 295.893C154.136 295.893 158.05 299.772 163.575 295.893C163.575 295.893 171.131 252.867 172.627 241.01C173.932 230.663 176.146 202.551 176.146 202.551L180.775 241.567C180.775 241.567 179.414 249.345 179.115 254.836C178.816 260.325 183.635 288.189 183.635 288.189C183.635 288.189 187.878 291.121 192.716 288.535C192.716 288.535 196.317 246.051 197.178 241.093C198.039 236.134 194.414 181.234 194.414 181.234L155.38 181.234Z" fill="#ececec" fill-rule="nonzero" opacity="1" stroke="none" vectornator:layerName="path"/>
<path d="M163.398 123.583C159.762 124.229 156.862 126.984 156.066 130.591C155.67 132.382 155.38 134.517 155.38 136.927L155.38 153.279L155.38 181.234C161.233 187.601 181.635 190.566 194.414 181.234C194.414 181.234 194.163 142.099 193.206 135.669C191.544 124.5 186.196 120.516 180.826 120.932L167.944 122.775L163.398 123.583Z" fill="#fadcc5" fill-rule="nonzero" opacity="1" stroke="none" vectornator:layerName="path"/>
<path d="M162.724 102.435C162.724 102.435 164.643 111.455 165.413 112.937C166.183 114.419 167.774 114.84 167.774 114.84L167.64 108.495L162.724 102.435Z" fill="#182e35" fill-rule="nonzero" opacity="1" stroke="none" vectornator:layerName="path"/>
<path d="M165.133 89.5127C165.133 89.5127 163.065 89.1587 161.453 90.8067C159.873 92.4227 160.756 97.4807 162.724 102.435L166.34 102.85L165.133 89.5127Z" fill="#182e35" fill-rule="nonzero" opacity="1" stroke="none" vectornator:layerName="path"/>
<path d="M167.425 102.853C166.7 103.286 165.665 101.893 164.771 100.957C163.877 100.022 160.957 98.7425 159.501 101.812C158.017 104.939 160.787 109.071 163.085 109.792C167.046 111.036 167.64 108.495 167.64 108.495L167.943 122.782C167.943 122.782 170.536 129.128 177.559 130.08C184.582 131.032 183.136 125.242 180.829 122.404L180.818 118.056C180.818 118.056 184.407 118.601 186.158 118.33C189.071 117.88 190.904 115.582 191.787 112.429C193.206 107.364 193.745 103.275 192.541 93.3145C191.221 82.3975 178.524 82.2845 171.667 86.6005C164.81 90.9155 167.425 102.853 167.425 102.853" fill="#ffaaa8" fill-rule="nonzero" opacity="1" stroke="none" vectornator:layerName="path"/>
<path d="M167.425 104.073C167.06 104.08 165.674 101.779 164.771 100.957C163.52 99.8188 165.133 89.5128 165.133 89.5128C165.133 89.5128 163.932 86.9508 166.341 84.3008C168.054 82.4138 170.918 82.2048 175.807 81.4368C178.372 81.0328 182.261 80.3158 184.822 79.8388C187.881 79.2698 190.413 78.6688 192.572 80.5448C194.254 82.0058 194.977 84.5868 194.072 86.6218C193.86 87.0988 193.553 87.5298 193.203 87.9188C192.584 88.6068 191.883 89.1488 191.002 89.4348C191.002 89.4348 189.668 90.6178 185.029 91.1828C180.388 91.7478 173.162 91.0738 172.174 90.9388C170.828 90.7548 170.541 92.0588 169.816 95.6218C169.179 98.7488 168.651 104.049 167.425 104.073" fill="#182e35" fill-rule="nonzero" opacity="1" stroke="none" vectornator:layerName="path"/>
<path d="M165.141 90.314L160.756 87.96C161.378 86.704 162.865 86.213 164.075 86.863C165.286 87.513 165.763 89.058 165.141 90.314" fill="#182e35" fill-rule="nonzero" opacity="1" stroke="none" vectornator:layerName="path"/>
<path d="M180.818 118.056C180.818 118.056 174.316 116.746 172.043 115.538C170.521 114.729 169.268 113.327 168.901 112.429C168.901 112.429 169.326 114.358 170.686 116.096C172.348 118.221 180.818 119.786 180.818 119.786L180.818 118.056Z" fill="#ff9090" fill-rule="nonzero" opacity="1" stroke="none" vectornator:layerName="path"/>
<path d="M179.255 101.227C179.255 101.975 178.672 102.579 177.952 102.577C177.233 102.575 176.649 101.968 176.649 101.22C176.649 100.472 177.233 99.8681 177.952 99.8701C178.672 99.8721 179.255 100.479 179.255 101.227" fill="#182e35" fill-rule="nonzero" opacity="1" stroke="none" vectornator:layerName="path"/>
<path d="M177.874 96.3076L175.086 97.8456C174.675 97.0446 174.966 96.0516 175.736 95.6266C176.506 95.2016 177.463 95.5066 177.874 96.3076" fill="#182e35" fill-rule="nonzero" opacity="1" stroke="none" vectornator:layerName="path"/>
<path d="M180.23 110.228L183.205 111.344C182.91 112.197 182.005 112.638 181.184 112.33C180.362 112.021 179.935 111.081 180.23 110.228" fill="#ff9090" fill-rule="nonzero" opacity="1" stroke="none" vectornator:layerName="path"/>
<path d="M190.875 97.3921L188.333 95.4341C188.852 94.7061 189.841 94.5551 190.542 95.0961C191.245 95.6361 191.394 96.6641 190.875 97.3921" fill="#182e35" fill-rule="nonzero" opacity="1" stroke="none" vectornator:layerName="path"/>
<path d="M190.092 100.856C190.092 101.604 189.509 102.209 188.789 102.206C188.07 102.204 187.486 101.597 187.486 100.849C187.486 100.101 188.07 99.497 188.789 99.499C189.509 99.501 190.092 100.108 190.092 100.856" fill="#182e35" fill-rule="nonzero" opacity="1" stroke="none" vectornator:layerName="path"/>
<path d="M183.454 99.6201L183.882 107.456L187.973 106.061L183.454 99.6201Z" fill="#ff9090" fill-rule="nonzero" opacity="1" stroke="none" vectornator:layerName="path"/>
<path d="M163.178 304.651L163.178 303.457C163.976 303.805 165.832 310.883 169.143 313.904C171.775 316.305 175.366 319.078 176.28 321.755C177.23 324.539 171.279 326.076 168.82 325.64C165.962 325.134 161.009 323.122 159.766 321.257C158.522 319.392 157.94 316.64 156.93 315.273C155.92 313.906 153.591 312.38 153.045 310.798C152.744 309.929 153.101 308.025 153.522 306.417C153.909 304.942 154.328 303.319 154.832 303.457C154.834 303.637 154.832 304.367 154.832 304.367C155.438 305.038 157.115 305.705 159.005 305.777C160.226 305.824 163.188 305.582 163.178 304.651" fill="#4a3728" fill-rule="nonzero" opacity="1" stroke="none" vectornator:layerName="path"/>
<path d="M192.196 296.488C192.629 296.503 192.982 297.114 193.938 298.149C195.093 299.399 196.983 300.748 198.847 301.681C201.972 303.245 208.048 305.652 210.797 306.89C212.515 307.664 212.435 309.739 210.659 310.92C208.883 312.101 204.596 312.951 199.449 311.801C196.645 311.173 192.994 308.583 190.684 308.723C188.373 308.863 184.05 308.829 182.344 307.654C180.639 306.478 181.321 303.967 181.803 301.81C182.329 299.456 183.082 295.853 183.862 296.014L183.836 296.755C184.84 298.274 189.947 298.894 192.152 297.776L192.196 296.488Z" fill="#4a3728" fill-rule="nonzero" opacity="1" stroke="none" vectornator:layerName="path"/>
<path d="M176.146 202.552C176.146 202.552 182.816 200.674 187.767 195.889C187.767 195.889 185.525 200.088 178.856 203.995L180.775 241.568L176.146 202.552Z" fill="#e1e1e1" fill-rule="nonzero" opacity="1" stroke="none" vectornator:layerName="path"/>
<path d="M142.456 193.782C142.825 197.4 143.241 202.283 143.96 205.06C146.458 214.701 149.662 217.589 153.929 217.874C160.739 218.328 160.783 215.779 157.726 211.392C155.469 208.154 154.686 205.124 154.686 205.124C156.027 206.13 157.104 206.9 157.957 207.232C159.655 207.894 160.741 206.988 161.026 206.4C161.248 205.942 160.069 205.481 158.764 203.889C157.098 201.857 156.245 200.24 153.955 198.554C153.101 197.926 152.834 196.769 152.575 195.741C152.228 194.37 151.991 172.511 153.225 167.986L159.083 146.964C163.848 143.693 168.924 127.513 161.68 124.073C154.878 124.838 149.922 133.73 142.509 161.189C141.197 166.051 141.694 186.304 142.456 193.782" fill="#ffaaa8" fill-rule="nonzero" opacity="1" stroke="none" vectornator:layerName="path"/>
<path d="M163.179 123.67C163.179 123.67 165.929 125.689 166.121 130.27C166.314 134.851 164.166 141.445 162.866 145.578C161.566 149.711 158.864 157.185 158.864 157.185C158.864 157.185 147.674 155.901 145.124 149.333C145.124 149.333 150.369 132.371 155.411 126.85C158.864 123.069 163.179 123.67 163.179 123.67" fill="#4a3728" fill-rule="nonzero" opacity="1" stroke="none" vectornator:layerName="path"/>
<path d="M208.956 159.788L208.073 159.026L208.072 159.038C207.873 158.878 207.563 158.828 207.164 158.936L197.596 161.538C196.709 161.78 195.747 162.679 195.446 163.548L188.56 183.413C188.4 183.874 188.464 184.228 188.687 184.428L188.679 184.431L189.591 185.216L189.55 184.562C189.574 184.556 189.596 184.556 189.621 184.549L199.189 181.947C200.076 181.706 201.039 180.807 201.339 179.938C202.691 176.034 206.873 163.976 208.225 160.072C208.268 159.947 208.291 159.832 208.303 159.724L208.956 159.788Z" fill="#644b37" fill-rule="nonzero" opacity="1" stroke="none" vectornator:layerName="path"/>
<path d="M189.446 184.176L196.332 164.31C196.633 163.442 197.595 162.543 198.482 162.301L208.05 159.699C208.936 159.458 209.411 159.967 209.111 160.835C207.759 164.739 203.577 176.796 202.225 180.701C201.925 181.569 200.962 182.469 200.075 182.71L190.507 185.312C189.62 185.553 189.145 185.045 189.446 184.176" fill="#4a3728" fill-rule="nonzero" opacity="1" stroke="none" vectornator:layerName="path"/>
<path d="M206.31 168.839C205.636 170.863 203.231 172.214 199.279 173.15C195.327 174.086 193.138 178.282 193.776 179.56C194.415 180.837 200.801 182.023 203.355 181.658C205.91 181.293 208.479 177.6 209.252 176.458C210.026 175.315 210.927 167.335 210.106 166.24C209.285 165.146 207.56 165.314 207.56 165.314L206.31 168.839Z" fill="#ffaaa8" fill-rule="nonzero" opacity="1" stroke="none" vectornator:layerName="path"/>
</g>
</g>
<g opacity="1" vectornator:layerName="path">
<clipPath id="ClipPath_10">
<path d="M0 0L500 0L500 500L0 500L0 0Z"/>
</clipPath>
<g clip-path="url(#ClipPath_10)">
<path d="M132.934 139.995L108.337 125.932C108.337 125.932 96.3651 142.382 104.516 147.026C112.666 151.67 120.755 156.402 128.874 161.09C138.068 157.492 132.934 139.995 132.934 139.995" fill="#fadcc5" fill-rule="nonzero" opacity="1" stroke="none" vectornator:layerName="path"/>
<g opacity="0.199997" vectornator:layerName="path">
<clipPath id="ClipPath_11">
<path d="M101.674 161.09L134.363 161.09L134.363 125.931L101.674 125.931L101.674 161.09Z"/>
</clipPath>
<g clip-path="url(#ClipPath_11)">
<path d="M132.934 139.995L108.337 125.932C108.337 125.932 96.3651 142.382 104.516 147.026C112.666 151.67 120.755 156.402 128.874 161.09C138.068 157.492 132.934 139.995 132.934 139.995" fill="#000000" fill-rule="nonzero" opacity="1" stroke="none" vectornator:layerName="path"/>
</g>
</g>
<path d="M128.874 142.338L112.636 132.963L112.636 134.026L128.874 143.51L128.874 142.338Z" fill="#4a3728" fill-rule="nonzero" opacity="1" stroke="none" vectornator:layerName="path"/>
<path d="M132.934 139.995C131.348 145.16 126.592 159.772 128.874 161.09C131.158 162.408 138.209 157.871 138.066 155.136C137.662 147.412 132.934 139.995 132.934 139.995" fill="#fadcc5" fill-rule="nonzero" opacity="1" stroke="none" vectornator:layerName="path"/>
<path d="M117.656 90.249L78.8763 90.249L78.8763 52.433C78.8763 42.6 86.8473 34.628 96.6803 34.628L99.8513 34.628C109.684 34.628 117.656 42.6 117.656 52.433L117.656 90.249Z" fill="#182e35" fill-rule="nonzero" opacity="1" stroke="none" vectornator:layerName="path"/>
<path d="M133.167 121.114C135.493 118.947 134.536 116.435 131.317 109.525C128.099 102.614 120.442 86.6288 118.519 83.2028C115.168 77.2358 111.242 76.9028 105.327 76.9208C102.947 76.9278 108.984 83.7378 111.698 90.3518C114.15 96.3298 123.676 115.899 123.676 115.899L133.167 121.114Z" fill="#c76668" fill-rule="nonzero" opacity="1" stroke="none" vectornator:layerName="path"/>
<path d="M95.3994 275.949C94.5464 275.188 93.6894 274.444 92.9104 273.734C90.4944 271.53 88.6524 267.792 87.5944 265.241C86.9904 263.785 86.6794 262.23 86.6794 260.654L86.6794 255.685L77.9624 255.685L77.9624 263.773L77.9624 263.774L77.9624 263.99L78.0064 264.011C78.4254 265.823 82.4264 270.642 84.6994 273.783C86.2224 275.89 89.1174 278.569 92.5764 279.031C95.8544 279.469 97.5294 278.435 95.3994 275.949" fill="#c76668" fill-rule="nonzero" opacity="1" stroke="none" vectornator:layerName="path"/>
<path d="M120.585 262.692C120.829 262.548 121.044 262.362 121.211 262.133C121.89 261.197 121.352 260.688 120.859 259.947C120.221 258.987 119.802 257.752 119.362 256.69C118.958 255.715 118.428 253.925 118.428 253.925C118.428 253.925 118.447 252.624 118.447 252.103L118.447 247.134L109.73 247.134L109.73 255.222L109.73 255.438L109.774 255.461C110.222 257.395 111.982 259.265 113.138 260.807C114.034 262.003 116.337 262.61 117.731 262.909C118.347 263.041 118.983 263.128 119.606 263.033C119.948 262.981 120.288 262.868 120.585 262.692" fill="#c76668" fill-rule="nonzero" opacity="1" stroke="none" vectornator:layerName="path"/>
<path d="M79.6973 128.602C72.9393 143.362 79.9413 195.358 79.9413 195.358C79.7383 197.753 76.9993 202.467 75.9783 213.009C74.7733 225.465 77.8703 256.742 77.8703 256.742C77.8703 256.742 81.9063 259.381 86.6793 257.092C86.6793 257.092 94.9883 209.986 96.5503 197.602C97.9133 186.793 100.53 163.027 100.53 163.027L105.733 197.586C105.733 197.586 103.824 203.641 103.377 208.253C102.672 215.539 109.73 249.456 109.73 249.456C109.73 249.456 112.738 250.56 118.447 249.719C118.447 249.719 120.944 204.708 121.602 195.933C122.707 181.195 121.027 135.166 118.323 126.442L79.6973 128.602Z" fill="#644b37" fill-rule="nonzero" opacity="1" stroke="none" vectornator:layerName="path"/>
<path d="M100.53 163.027L102.724 149.318C102.724 149.318 112.007 147.395 116.216 143.437C116.216 143.437 111.8 148.931 105.239 150.73L102.775 161.285L104.981 192.594L100.53 163.027Z" fill="#4a3728" fill-rule="nonzero" opacity="1" stroke="none" vectornator:layerName="path"/>
<path d="M86.7041 262.459L86.6921 261.201C87.5281 261.565 89.4831 268.985 92.9501 272.148C95.7061 274.662 99.4671 277.566 100.423 280.369C101.418 283.284 95.1871 284.893 92.6121 284.437C89.6201 283.907 84.4331 281.8 83.1311 279.847C81.8291 277.895 81.2201 275.013 80.1621 273.582C79.1041 272.15 76.6651 270.552 76.0941 268.896C75.7791 267.986 76.1521 265.992 76.5941 264.308C76.9991 262.763 77.4381 261.064 77.9661 261.209C77.9671 261.397 77.9661 262.162 77.9661 262.162C78.6001 262.865 80.3551 263.563 82.3341 263.639C83.6131 263.688 86.7151 263.434 86.7041 262.459" fill="#4a3728" fill-rule="nonzero" opacity="1" stroke="none" vectornator:layerName="path"/>
<path d="M118.428 253.926C118.882 253.942 119.369 254.629 120.37 255.712C121.58 257.021 123.558 258.433 125.511 259.41C128.783 261.049 135.144 263.568 138.024 264.865C139.823 265.676 139.738 267.848 137.879 269.085C136.019 270.321 131.531 271.212 126.141 270.007C123.204 269.35 119.382 266.638 116.963 266.784C114.543 266.93 110.016 266.896 108.231 265.665C106.445 264.434 107.159 261.805 107.664 259.546C108.215 257.081 108.904 253.236 109.72 253.405L109.72 254.254C110.771 255.845 116.192 256.492 118.5 255.322L118.428 253.926Z" fill="#4a3728" fill-rule="nonzero" opacity="1" stroke="none" vectornator:layerName="path"/>
<path d="M91.6177 77.3228L91.6177 77.3228C82.9537 77.9188 82.3457 82.1028 80.1777 86.6788C78.5277 90.1628 79.0717 94.3188 80.3307 97.9628L85.8057 115.313C85.8057 115.313 82.9787 122.146 79.6977 128.602C94.8487 137.059 113.768 132.614 118.325 126.443C118.517 125.134 117.346 114.9 116.625 108.216C119.293 101.521 119.998 97.2778 118.872 92.8528C116.783 84.6388 108.669 76.6368 105.079 76.9278L91.6177 77.3228Z" fill="#fadcc5" fill-rule="nonzero" opacity="1" stroke="none" vectornator:layerName="path"/>
<path d="M77.938 42.6343L80.561 46.8493C79.398 47.6273 77.869 47.3133 77.145 46.1493C76.42 44.9863 76.775 43.4113 77.938 42.6343" fill="#182e35" fill-rule="nonzero" opacity="1" stroke="none" vectornator:layerName="path"/>
<path d="M111.287 42.4702C113.335 43.6802 115.866 48.8322 115.617 59.6312C115.405 68.7832 112.438 71.0442 110.949 71.6962C109.459 72.3472 106.586 71.9512 103.793 71.4862L103.793 76.9782C103.793 76.9782 107.653 81.4622 107.41 83.9812C107.167 86.4992 101.836 87.0952 98.2236 84.6342C94.6116 82.1742 92.2956 78.4282 92.2956 78.4282L92.2956 65.1512C92.2956 65.1512 90.4106 67.6692 87.3266 65.6202C84.2426 63.5732 84.1246 58.5032 85.9176 56.6832C87.7106 54.8632 91.5756 55.4392 92.2956 57.9542C92.2956 57.9542 96.7496 58.1162 102.682 54.8582C108.614 51.6002 110.892 46.0192 111.287 42.4702" fill="#c76668" fill-rule="nonzero" opacity="1" stroke="none" vectornator:layerName="path"/>
<path d="M104.373 57.3315C104.406 57.9915 103.918 58.5505 103.284 58.5805C102.648 58.6105 102.107 58.1005 102.074 57.4405C102.041 56.7815 102.529 56.2225 103.164 56.1915C103.798 56.1625 104.34 56.6715 104.373 57.3315" fill="#182e35" fill-rule="nonzero" opacity="1" stroke="none" vectornator:layerName="path"/>
<path d="M105.705 65.0903L108.378 65.9433C108.156 66.7083 107.378 67.1373 106.64 66.9023C105.901 66.6663 105.483 65.8553 105.705 65.0903" fill="#b0484c" fill-rule="nonzero" opacity="1" stroke="none" vectornator:layerName="path"/>
<path d="M113.809 53.7974L111.48 52.1834C111.905 51.5184 112.771 51.3404 113.414 51.7864C114.058 52.2324 114.234 53.1324 113.809 53.7974" fill="#182e35" fill-rule="nonzero" opacity="1" stroke="none" vectornator:layerName="path"/>
<path d="M113.272 56.4995C113.305 57.1595 112.817 57.7185 112.182 57.7485C111.547 57.7785 111.006 57.2685 110.973 56.6085C110.94 55.9495 111.428 55.3905 112.063 55.3595C112.697 55.3295 113.239 55.8395 113.272 56.4995" fill="#182e35" fill-rule="nonzero" opacity="1" stroke="none" vectornator:layerName="path"/>
<path d="M107.651 55.8403L107.834 62.7693L111.481 61.6393L107.651 55.8403Z" fill="#b0484c" fill-rule="nonzero" opacity="1" stroke="none" vectornator:layerName="path"/>
<path d="M103.793 71.4858C100.85 71.0998 94.7935 69.3608 93.8505 66.9658C93.8505 66.9658 94.1645 68.4708 95.9735 70.0208C97.7825 71.5718 103.793 73.3188 103.793 73.3188L103.793 71.4858Z" fill="#b0484c" fill-rule="nonzero" opacity="1" stroke="none" vectornator:layerName="path"/>
<g opacity="0.100006" vectornator:layerName="path">
<clipPath id="ClipPath_12">
<path d="M79.073 133.271L112.071 133.271L112.071 87.629L79.073 87.629L79.073 133.271Z"/>
</clipPath>
<g clip-path="url(#ClipPath_12)">
<path d="M95.4927 130.241C91.3687 129.265 87.1797 124.755 89.0747 120.351C89.6037 119.122 90.5447 118.074 91.7097 117.418C92.7237 116.847 93.5207 117.088 94.4597 117.711C92.4957 116.408 89.0657 110.082 88.6047 107.771L86.2657 99.9827C86.2657 99.9827 85.8557 97.5627 86.7347 94.6727L80.6437 87.6287C80.6437 87.6287 80.2067 87.9327 79.5187 88.4107C78.5697 91.4617 79.2747 94.9077 80.3307 97.9627L85.8057 115.313C85.8057 115.313 82.9787 122.146 79.6977 128.602C90.8637 134.835 104.07 134.056 112.072 130.747C105.751 131.728 99.8947 131.283 95.4927 130.241" fill="#000000" fill-rule="nonzero" opacity="1" stroke="none" vectornator:layerName="path"/>
</g>
</g>
<path d="M65.896 118.807C72.457 91.9886 77.159 82.5196 82.355 79.3886C84.35 78.1856 87.254 77.5696 88.71 77.7116C89.494 78.4496 89.797 79.9006 89.94 80.8216C90.621 85.2286 89.386 91.7636 86.202 96.1786C86.202 96.1786 76.628 116.376 75.101 123.557C73.764 129.84 72.25 137.739 72.334 143.16C72.349 144.134 72.729 145.078 73.39 145.793C75.147 147.692 75.152 149.22 76.287 151.32C77.174 152.96 78.144 153.574 77.867 153.943C77.512 154.417 76.389 155.036 74.993 154.155C74.291 153.712 73.834 153.192 72.815 152.065C72.815 152.065 73.093 154.606 74.542 157.875C76.507 162.307 76.029 164.567 70.047 162.989C66.299 162 63.946 158.878 63.385 149.87C63.224 147.275 62.979 143.181 63.286 139.9C64.086 131.356 64.663 123.848 65.896 118.807" fill="#c76668" fill-rule="nonzero" opacity="1" stroke="none" vectornator:layerName="path"/>
<path d="M103.199 116.659C104.996 117.177 106.746 116.951 109.218 117.882C111.394 118.701 112.84 119.162 114.998 119.347C117.157 119.53 119.279 117.251 124.814 114.112C130.055 111.139 136.532 117.286 133.167 121.114C132.606 121.751 130.845 123.072 129.077 123.78C126.57 124.784 124.103 125.309 117.653 127.263C116.554 127.597 115.534 128.121 114.508 128.626C113.224 129.256 112.002 129.614 110.659 130.055C107.672 131.035 104.43 131.236 101.347 130.616C99.4962 130.243 97.5562 129.481 96.2792 128.034C95.1292 126.731 94.0852 124.259 94.4842 122.523C94.6032 122.004 94.8512 121.497 95.2702 121.169C96.2702 120.384 97.8202 120.884 98.9492 121.057C100.315 121.267 101.594 121.539 102.993 121.479C105.147 121.388 106.657 121.026 106.358 120.714C106.06 120.401 104.798 120.543 103.092 119.75C101.463 118.993 100.315 117.28 100.812 116.399C101.309 115.518 101.403 116.141 103.199 116.659" fill="#c76668" fill-rule="nonzero" opacity="1" stroke="none" vectornator:layerName="path"/>
<path d="M123.14 114.998C123.14 114.998 126.082 114.508 127.993 117.852C129.904 121.195 130.905 138.823 130.905 138.823L128.875 137.65C128.875 137.65 128.186 123.521 126.492 119.486C124.975 115.87 121.164 116.335 121.164 116.335C121.556 115.629 122.236 115.205 123.14 114.998" fill="#4a3728" fill-rule="nonzero" opacity="1" stroke="none" vectornator:layerName="path"/>
</g>
</g>
<g opacity="1" vectornator:layerName="path">
<clipPath id="ClipPath_13">
<path d="M0 0L500 0L500 500L0 500L0 0Z"/>
</clipPath>
<g clip-path="url(#ClipPath_13)">
<path d="M55.3794 162.359L46.6424 162.359L46.6424 298.658C46.6424 299.303 47.0694 299.949 47.9214 300.441C49.6284 301.426 52.3944 301.426 54.1004 300.441C54.9534 299.949 55.3794 299.303 55.3794 298.658L55.3794 162.359Z" fill="#4a3728" fill-rule="nonzero" opacity="1" stroke="none" vectornator:layerName="path"/>
<path d="M47.9219 164.142C49.6279 165.127 52.3939 165.127 54.0999 164.142C55.8059 163.157 55.8059 161.56 54.0999 160.576C52.3939 159.591 49.6279 159.591 47.9219 160.576C46.2159 161.56 46.2159 163.157 47.9219 164.142" fill="#644b37" fill-rule="nonzero" opacity="1" stroke="none" vectornator:layerName="path"/>
<path d="M53.6382 179.214C84.6932 208.673 122.246 229.722 165.283 243.672L165.283 235.023C122.246 221.073 84.6932 200.025 53.6382 170.565L53.6382 179.214Z" fill="#fadcc5" fill-rule="nonzero" opacity="1" stroke="none" vectornator:layerName="path"/>
<g opacity="0.699997" vectornator:layerName="path">
<clipPath id="ClipPath_14">
<path d="M53.6384 243.672L165.283 243.672L165.283 170.565L53.6384 170.565L53.6384 243.672Z"/>
</clipPath>
<g clip-path="url(#ClipPath_14)">
<path d="M53.6382 179.214C84.6932 208.673 122.246 229.722 165.283 243.672L165.283 235.023C122.246 221.073 84.6932 200.025 53.6382 170.565L53.6382 179.214Z" fill="#ffffff" fill-rule="nonzero" opacity="1" stroke="none" vectornator:layerName="path"/>
</g>
</g>
<path d="M167.172 227.246L158.435 227.246L158.435 363.544C158.435 364.19 158.861 364.835 159.714 365.328C161.421 366.313 164.187 366.313 165.893 365.328C166.746 364.835 167.172 364.19 167.172 363.544L167.172 227.246Z" fill="#4a3728" fill-rule="nonzero" opacity="1" stroke="none" vectornator:layerName="path"/>
<path d="M159.715 229.029C161.421 230.014 164.187 230.014 165.893 229.029C167.599 228.044 167.599 226.447 165.893 225.462C164.187 224.477 161.421 224.477 159.715 225.462C158.009 226.447 158.009 228.044 159.715 229.029" fill="#644b37" fill-rule="nonzero" opacity="1" stroke="none" vectornator:layerName="path"/>
<path d="M164.908 243.292C195.963 272.751 233.515 293.8 276.553 307.75L276.553 299.101C233.515 285.151 195.963 264.103 164.908 234.643L164.908 243.292Z" fill="#fadcc5" fill-rule="nonzero" opacity="1" stroke="none" vectornator:layerName="path"/>
<g opacity="0.699997" vectornator:layerName="path">
<clipPath id="ClipPath_15">
<path d="M164.908 307.749L276.552 307.749L276.552 234.643L164.908 234.643L164.908 307.749Z"/>
</clipPath>
<g clip-path="url(#ClipPath_15)">
<path d="M164.908 243.292C195.963 272.751 233.515 293.8 276.553 307.75L276.553 299.101C233.515 285.151 195.963 264.103 164.908 234.643L164.908 243.292Z" fill="#ffffff" fill-rule="nonzero" opacity="1" stroke="none" vectornator:layerName="path"/>
</g>
</g>
<path d="M278.965 292.133L270.229 292.133L270.229 428.432C270.229 429.077 270.655 429.723 271.508 430.215C273.214 431.2 275.98 431.2 277.686 430.215C278.539 429.723 278.965 429.077 278.965 428.432L278.965 292.133Z" fill="#4a3728" fill-rule="nonzero" opacity="1" stroke="none" vectornator:layerName="path"/>
<path d="M271.508 293.917C273.214 294.902 275.98 294.902 277.686 293.917C279.392 292.932 279.392 291.335 277.686 290.35C275.98 289.365 273.214 289.365 271.508 290.35C269.802 291.335 269.802 292.932 271.508 293.917" fill="#644b37" fill-rule="nonzero" opacity="1" stroke="none" vectornator:layerName="path"/>
</g>
</g>
</g>
</g>
</svg>
